<svg width="360" height="291" viewBox="0 0 360 341" fill="none" xmlns="http://www.w3.org/2000/svg">
<g clip-path="url(#clip0_190_1005)">
<path opacity="0.24" d="M166.864 -20.1389C143.178 -21.968 119.053 -23.7732 95.8614 -18.6293C72.6698 -13.4855 50.1563 -0.258482 39.9047 20.7801C26.6136 48.0409 36.4423 81.1723 27.1401 109.975C22.0263 125.805 11.4796 139.28 2.03382 153.106C-13.1321 175.263 -26.1121 199.624 -30.5079 225.983C-34.9037 252.341 -29.8377 281.191 -12.3343 301.726C15.676 334.69 65.2265 337.917 108.993 338.604L263.923 340.936C283.987 341.24 304.873 341.375 323.015 332.949C351.943 319.434 366.758 287.852 376.355 257.932C385.346 229.904 391.577 198.426 378.549 171.964C371.217 157.076 358.285 145.015 353.02 129.296C346.286 109 353.674 87.0031 353.02 65.6689C350.164 -31.0656 232.634 -15.067 166.864 -20.1389Z" fill="#5F5DEE"/>
<path d="M231.07 84.7905C231.111 84.0506 230.942 83.3142 230.583 82.6659C230.242 82.2395 229.812 81.8932 229.323 81.6515C222.943 77.9224 215.862 75.5539 208.524 74.6946C207.33 74.4664 206.097 74.5601 204.95 74.9661C203.355 75.661 202.557 77.3224 201.799 78.8639L187.678 108.417C187.303 109.216 186.928 110.11 187.303 110.885C187.532 111.282 187.852 111.619 188.237 111.868C199.833 120.458 214.317 124.183 228.613 122.251C230.617 122.095 232.554 121.451 234.253 120.374C240.635 115.709 235.545 109.735 232.49 105.374C228.956 100.334 231.285 90.8609 231.07 84.7905Z" fill="#5F5DEE"/>
<path d="M231.07 84.7905C231.111 84.0506 230.942 83.3142 230.583 82.6659C230.242 82.2395 229.812 81.8932 229.323 81.6515C222.943 77.9224 215.862 75.5539 208.524 74.6946C207.33 74.4664 206.097 74.5601 204.95 74.9661C203.355 75.661 202.557 77.3224 201.799 78.8639L187.678 108.417C187.303 109.216 186.928 110.11 187.303 110.885C187.532 111.282 187.852 111.619 188.237 111.868C199.833 120.458 214.317 124.183 228.613 122.251C230.617 122.095 232.554 121.451 234.253 120.374C240.635 115.709 235.545 109.735 232.49 105.374C228.956 100.334 231.285 90.8609 231.07 84.7905Z" fill="url(#paint0_linear_190_1005)"/>
<path d="M160.306 89.5989C160.622 88.8903 161.1 88.2664 161.703 87.7778C162.48 87.3311 163.367 87.1099 164.263 87.1388C168.723 87.0057 173.186 87.1525 177.626 87.5781C180.523 87.6958 183.4 88.0971 186.218 88.7762C188.266 89.337 190.222 90.1897 192.026 91.3082C192.887 91.7526 193.599 92.4381 194.077 93.2811C194.401 94.1304 194.516 95.0456 194.412 95.9488C194.276 99.3355 194.101 102.722 193.909 106.101C193.526 112.898 193.048 119.855 190.287 126.069C189.992 126.849 189.526 127.553 188.923 128.13C188.357 128.551 187.711 128.85 187.024 129.008C185.174 129.47 183.275 129.714 181.368 129.735C174.966 129.972 168.559 129.435 162.285 128.138C159.348 127.596 156.489 126.695 153.773 125.454C153.32 125.281 152.931 124.975 152.656 124.575C152.482 124.185 152.413 123.755 152.456 123.329C152.52 118.223 152.738 113.13 153.11 108.05C153.278 105.797 153.174 103.209 153.852 101.045C154.283 99.663 155.336 98.5847 156.07 97.3546C157.594 94.8306 158.894 92.1788 160.306 89.5989Z" fill="#5F5DEE"/>
<path d="M160.306 89.5989C160.622 88.8903 161.1 88.2664 161.703 87.7778C162.48 87.3311 163.367 87.1099 164.263 87.1388C168.723 87.0057 173.186 87.1525 177.626 87.5781C180.523 87.6958 183.4 88.0971 186.218 88.7762C188.266 89.337 190.222 90.1897 192.026 91.3082C192.887 91.7526 193.599 92.4381 194.077 93.2811C194.401 94.1304 194.516 95.0456 194.412 95.9488C194.276 99.3355 194.101 102.722 193.909 106.101C193.526 112.898 193.048 119.855 190.287 126.069C189.992 126.849 189.526 127.553 188.923 128.13C188.357 128.551 187.711 128.85 187.024 129.008C185.174 129.47 183.275 129.714 181.368 129.735C174.966 129.972 168.559 129.435 162.285 128.138C159.348 127.596 156.489 126.695 153.773 125.454C153.32 125.281 152.931 124.975 152.656 124.575C152.482 124.185 152.413 123.755 152.456 123.329C152.52 118.223 152.738 113.13 153.11 108.05C153.278 105.797 153.174 103.209 153.852 101.045C154.283 99.663 155.336 98.5847 156.07 97.3546C157.594 94.8306 158.894 92.1788 160.306 89.5989Z" fill="url(#paint1_linear_190_1005)"/>
<path d="M237.492 101.756C238.832 101.628 240.276 101.524 241.425 102.227C242.404 102.956 243.141 103.963 243.539 105.118C247.098 113.148 248.721 121.904 248.278 130.678C223.86 133.589 199.28 134.923 174.69 134.671C169.018 134.607 170.701 123.904 173.095 120.646C176.446 116.181 184.503 114.416 189.402 112.658C204.929 107.08 221.079 103.419 237.492 101.756Z" fill="#5F5DEE"/>
<path d="M237.492 101.756C238.832 101.628 240.276 101.524 241.425 102.227C242.404 102.956 243.141 103.963 243.539 105.118C247.098 113.148 248.721 121.904 248.278 130.678C223.86 133.589 199.28 134.923 174.69 134.671C169.018 134.607 170.701 123.904 173.095 120.646C176.446 116.181 184.503 114.416 189.402 112.658C204.929 107.08 221.079 103.419 237.492 101.756Z" fill="url(#paint2_linear_190_1005)"/>
<path d="M99.1322 105.014C99.07 104.639 99.0982 104.253 99.2145 103.89C99.3309 103.528 99.5319 103.198 99.801 102.928C100.07 102.659 100.4 102.458 100.762 102.341C101.124 102.225 101.509 102.197 101.885 102.259C122.717 100.624 143.587 99.7029 164.495 99.4952C165.156 99.4308 165.822 99.5525 166.417 99.8467C167.279 100.382 167.502 101.5 167.662 102.498C168.768 109.783 169.883 117.067 171.005 124.352C171.187 125.032 171.131 125.753 170.845 126.397C170.366 127.195 169.305 127.387 168.38 127.483C150.627 129.382 132.782 130.281 114.928 130.175C109.296 130.135 102.036 131.524 99.22 125.502C96.6591 119.999 98.6455 110.741 99.1322 105.014Z" fill="#5F5DEE"/>
<path d="M99.1322 105.014C99.07 104.639 99.0982 104.253 99.2145 103.89C99.3309 103.528 99.5319 103.198 99.801 102.928C100.07 102.659 100.4 102.458 100.762 102.341C101.124 102.225 101.509 102.197 101.885 102.259C122.717 100.624 143.587 99.7029 164.495 99.4952C165.156 99.4308 165.822 99.5525 166.417 99.8467C167.279 100.382 167.502 101.5 167.662 102.498C168.768 109.783 169.883 117.067 171.005 124.352C171.187 125.032 171.131 125.753 170.845 126.397C170.366 127.195 169.305 127.387 168.38 127.483C150.627 129.382 132.782 130.281 114.928 130.175C109.296 130.135 102.036 131.524 99.22 125.502C96.6591 119.999 98.6455 110.741 99.1322 105.014Z" fill="url(#paint3_linear_190_1005)"/>
<path d="M119.3 286.223C150.217 287.549 181.153 288.127 212.107 287.956C209.769 291.311 211.803 296.263 215.25 298.452C218.696 300.64 222.996 300.848 227.073 300.952L286.748 302.661C294.941 302.9 303.732 302.972 310.553 298.412C311.957 297.577 313.092 296.357 313.824 294.897C315.803 290.352 311.208 285.808 307.147 282.956L290.393 271.175C282.527 265.656 274.573 260.088 265.662 256.558C253.217 251.646 239.566 250.967 226.196 250.56C195.441 249.665 163.888 248.874 133.23 251.869C123.577 252.708 114.172 255.375 105.514 259.729C100.074 262.437 79.1397 268.515 78.3898 274.402C76.7703 286.159 112.352 285.887 119.3 286.223Z" fill="url(#paint4_linear_190_1005)"/>
<path d="M169.044 68.3462C171.552 64.5173 170.486 59.3777 166.661 56.8664C162.837 54.3552 157.703 55.4233 155.195 59.2521L106.567 133.482C104.059 137.311 105.126 142.45 108.95 144.961C112.774 147.473 117.908 146.405 120.416 142.576L169.044 68.3462Z" fill="#5F5DEE"/>
<path d="M200.447 63.5893C197.73 59.9062 192.545 59.1257 188.866 61.8462C185.188 64.5666 184.408 69.7577 187.125 73.4409L239.804 144.846C242.521 148.529 247.706 149.31 251.385 146.589C255.063 143.869 255.843 138.678 253.126 134.995L200.447 63.5893Z" fill="#5F5DEE"/>
<path d="M169.044 68.3462C171.552 64.5173 170.486 59.3777 166.661 56.8664C162.837 54.3552 157.703 55.4233 155.195 59.2521L106.567 133.482C104.059 137.311 105.126 142.45 108.95 144.961C112.774 147.473 117.908 146.405 120.416 142.576L169.044 68.3462Z" fill="url(#paint5_linear_190_1005)"/>
<path d="M200.447 63.5893C197.73 59.9062 192.545 59.1257 188.866 61.8462C185.188 64.5666 184.408 69.7577 187.125 73.4409L239.804 144.846C242.521 148.529 247.706 149.31 251.385 146.589C255.063 143.869 255.843 138.678 253.126 134.995L200.447 63.5893Z" fill="url(#paint6_linear_190_1005)"/>
<path d="M239.854 270.767H107.349L91.5132 149.328H261.777L239.854 270.767Z" fill="#5F5DEE"/>
<path d="M261.777 149.312L239.846 270.759H107.357L91.5212 149.312H261.777Z" fill="url(#paint7_linear_190_1005)"/>
<path d="M158.503 190.782V270.759H136.054V190.782C136.132 187.857 137.347 185.077 139.442 183.036C141.536 180.994 144.343 179.852 147.267 179.852C150.19 179.852 152.997 180.994 155.092 183.036C157.186 185.077 158.402 187.857 158.479 190.782H158.503Z" fill="#5F5DEE"/>
<path d="M207.216 190.782V270.759H184.79V190.782C184.868 187.857 186.084 185.077 188.178 183.036C190.272 180.994 193.08 179.852 196.003 179.852C198.926 179.852 201.734 180.994 203.828 183.036C205.923 185.077 207.138 187.857 207.216 190.782Z" fill="#5F5DEE"/>
<path d="M269.364 301.495C305.361 301.495 334.543 272.278 334.543 236.238C334.543 200.198 305.361 170.982 269.364 170.982C233.366 170.982 204.185 200.198 204.185 236.238C204.185 272.278 233.366 301.495 269.364 301.495Z" fill="white"/>
<path d="M259.224 274.705C256.884 274.703 254.641 273.773 252.985 272.117L224.424 243.555C222.847 241.883 221.983 239.661 222.016 237.361C222.049 235.062 222.977 232.866 224.601 231.24C226.226 229.614 228.42 228.687 230.717 228.655C233.014 228.624 235.233 229.49 236.902 231.07L258.785 252.98L303.461 201.685C304.212 200.779 305.137 200.032 306.182 199.489C307.226 198.945 308.368 198.617 309.54 198.522C310.713 198.427 311.893 198.568 313.011 198.937C314.128 199.305 315.161 199.894 316.048 200.668C316.935 201.442 317.658 202.386 318.176 203.444C318.693 204.502 318.993 205.653 319.06 206.829C319.126 208.005 318.957 209.183 318.562 210.292C318.167 211.402 317.554 212.422 316.76 213.291L265.861 271.71C265.064 272.627 264.084 273.368 262.986 273.886C261.887 274.404 260.693 274.689 259.479 274.721C259.394 274.722 259.308 274.717 259.224 274.705Z" fill="#5F5DEE"/>
<path d="M266.388 125.909H87.628C79.6839 125.909 73.2439 132.357 73.2439 140.31V148.09C73.2439 156.044 79.6839 162.491 87.628 162.491H266.388C274.332 162.491 280.772 156.044 280.772 148.09V140.31C280.772 132.357 274.332 125.909 266.388 125.909Z" fill="#5F5DEE"/>
<path d="M266.388 125.909H87.628C79.6839 125.909 73.2439 132.357 73.2439 140.31V148.09C73.2439 156.044 79.6839 162.491 87.628 162.491H266.388C274.332 162.491 280.772 156.044 280.772 148.09V140.31C280.772 132.357 274.332 125.909 266.388 125.909Z" fill="url(#paint8_linear_190_1005)"/>
<path d="M194.061 75.3096C197.691 75.3096 200.634 72.3629 200.634 68.728C200.634 65.0931 197.691 62.1465 194.061 62.1465C190.43 62.1465 187.487 65.0931 187.487 68.728C187.487 72.3629 190.43 75.3096 194.061 75.3096Z" fill="url(#paint9_linear_190_1005)"/>
<path d="M162.149 70.6769C165.78 70.6769 168.723 67.7303 168.723 64.0954C168.723 60.4605 165.78 57.5138 162.149 57.5138C158.519 57.5138 155.575 60.4605 155.575 64.0954C155.575 67.7303 158.519 70.6769 162.149 70.6769Z" fill="url(#paint10_linear_190_1005)"/>
</g>
<defs>
<linearGradient id="paint0_linear_190_1005" x1="207.272" y1="81.6994" x2="216.795" y2="140.586" gradientUnits="userSpaceOnUse">
<stop stop-color="#010101" stop-opacity="0"/>
<stop offset="0.95" stop-color="#010101"/>
</linearGradient>
<linearGradient id="paint1_linear_190_1005" x1="169.824" y1="97.131" x2="185.447" y2="149.062" gradientUnits="userSpaceOnUse">
<stop stop-color="#010101" stop-opacity="0"/>
<stop offset="0.95" stop-color="#010101"/>
</linearGradient>
<linearGradient id="paint2_linear_190_1005" x1="206.857" y1="108.505" x2="212.718" y2="147.273" gradientUnits="userSpaceOnUse">
<stop stop-color="#010101" stop-opacity="0"/>
<stop offset="0.95" stop-color="#010101"/>
</linearGradient>
<linearGradient id="paint3_linear_190_1005" x1="133.333" y1="101.628" x2="137.484" y2="173.074" gradientUnits="userSpaceOnUse">
<stop stop-color="#010101" stop-opacity="0"/>
<stop offset="0.95" stop-color="#010101"/>
</linearGradient>
<linearGradient id="paint4_linear_190_1005" x1="188.811" y1="324.115" x2="243.009" y2="32.9599" gradientUnits="userSpaceOnUse">
<stop stop-color="#010101" stop-opacity="0"/>
<stop offset="0.95" stop-color="#010101"/>
</linearGradient>
<linearGradient id="paint5_linear_190_1005" x1="151.05" y1="79.9045" x2="74.5568" y2="200.903" gradientUnits="userSpaceOnUse">
<stop stop-color="#010101" stop-opacity="0"/>
<stop offset="0.95" stop-color="#010101"/>
</linearGradient>
<linearGradient id="paint6_linear_190_1005" x1="210.997" y1="84.7914" x2="264.081" y2="197.412" gradientUnits="userSpaceOnUse">
<stop stop-color="#010101" stop-opacity="0"/>
<stop offset="0.95" stop-color="#010101"/>
</linearGradient>
<linearGradient id="paint7_linear_190_1005" x1="165.3" y1="287.565" x2="182.877" y2="73.9392" gradientUnits="userSpaceOnUse">
<stop stop-color="#010101" stop-opacity="0"/>
<stop offset="1" stop-color="#010101"/>
</linearGradient>
<linearGradient id="paint8_linear_190_1005" x1="177.012" y1="138.593" x2="177.012" y2="256.622" gradientUnits="userSpaceOnUse">
<stop stop-color="#010101" stop-opacity="0"/>
<stop offset="0.95" stop-color="#010101"/>
</linearGradient>
<linearGradient id="paint9_linear_190_1005" x1="192.01" y1="49.0952" x2="197.136" y2="98.1121" gradientUnits="userSpaceOnUse">
<stop stop-color="#010101" stop-opacity="0"/>
<stop offset="0.95" stop-color="#010101"/>
</linearGradient>
<linearGradient id="paint10_linear_190_1005" x1="160.107" y1="44.4625" x2="165.233" y2="93.4715" gradientUnits="userSpaceOnUse">
<stop stop-color="#010101" stop-opacity="0"/>
<stop offset="0.95" stop-color="#010101"/>
</linearGradient>
<clipPath id="clip0_190_1005">
<rect width="418" height="363" fill="white" transform="translate(-32 -22)"/>
</clipPath>
</defs>
</svg>
