<svg width="360" height="291" viewBox="0 0 360 291" fill="none" xmlns="http://www.w3.org/2000/svg">
<path opacity="0.18" d="M43.7058 40.3433C36.7513 64.9209 25.7962 82.7445 3.84944 113.613C-13.9999 138.719 -15.8667 169.884 3.84938 184.5C23.5655 199.116 78.3325 198.161 97.8052 213.09C117 227.844 131.347 247.349 149.151 263.569C166.954 279.789 190.46 293.186 215.142 290.702C257.683 286.412 278.373 241.254 309.112 213.358C334.997 189.888 374.331 172.339 377.774 138.719C379.86 118.372 367.161 99.5381 354.733 82.7445C266.5 51.5 269.307 77.3412 230.5 60C191.061 42.385 71.1902 -56.7805 43.7058 40.3433Z" fill="#5F5DEE"/>
<g clip-path="url(#clip0_190_1162)">
<path opacity="0.24" d="M304.144 190.15C303.72 189.686 303.258 189.259 302.762 188.874C303.683 152.403 300.79 76.6594 300.666 73.3829L299.998 56L210.734 103.692L145.631 65.9772L140.233 68.9772C132.604 73.217 65.6082 110.453 62.3514 112.356L56.8835 115.531L56.9757 122.591C57.2382 144.527 58.5419 273.286 58.5557 275.005C58.5557 275.005 84.4854 259.696 88.6404 257.198C95.5501 253.027 105.141 247.202 117.085 239.889C131.176 231.253 145.466 222.437 152.527 218.077C178.282 232.17 205.501 247.313 209.79 250.142C211.818 251.869 214.396 252.812 217.059 252.801C220.284 252.801 222.379 252.801 261.17 233.962C279.78 224.93 298.372 215.616 300.537 214.524C304.149 212.681 306.429 209.132 306.797 204.74C306.88 203.736 306.876 202.754 306.876 201.713C306.876 200.671 306.876 199.538 306.958 198.538C307.096 197.021 306.917 195.492 306.432 194.048C305.947 192.604 305.168 191.277 304.144 190.15ZM217.741 237.695C214.641 235.677 206.846 231.17 185.924 219.575C170.092 210.819 154.204 202.132 154.047 202.063L152.048 200.971L150.113 202.169C124.29 218.137 87.0512 241.013 73.2733 249.128C72.9923 224.681 71.9743 139.67 71.79 124.001C82.8455 117.799 134.737 88.95 145.493 82.9867L210.444 120.647L286.1 80.2125C286.87 102.047 289.237 174.763 287.51 198.865C287.446 199.794 287.708 200.716 288.25 201.473C288.792 202.23 289.581 202.774 290.481 203.012C269.794 213.386 226.456 234.667 217.741 237.695Z" fill="black"/>
<path d="M67.8469 118.052C71.0714 116.153 145.516 74.793 145.516 74.793C145.516 74.793 211.752 110.987 211.794 108.397C211.835 105.808 291.062 70.9635 289.786 70.1247C288.689 69.392 293.471 166.578 291.416 195.473C291.37 196.104 296.166 193.312 296.115 193.874C295.783 197.455 296.262 200.819 295.627 201.141C291.246 203.353 218.109 239.953 216.856 238.184C215.603 236.414 152.196 201.823 152.196 201.823C152.196 201.823 69.4361 252.981 69.4361 252.013C69.4361 251.046 67.8469 118.052 67.8469 118.052Z" fill="#5F5DEE"/>
<path d="M65.9723 257.52L65.9492 254.023C65.9492 252.539 64.3738 121.421 64.36 120.098L64.3462 118.052L66.0966 117.029C69.3212 115.135 140.795 75.4198 143.835 73.71L145.562 72.7515L210.596 110.448L293.052 66.438L293.287 71.9911C293.43 75.7193 296.59 158.97 295.203 192.385C295.474 192.329 295.75 192.3 296.028 192.298C296.528 192.296 297.022 192.399 297.481 192.598C297.939 192.798 298.351 193.091 298.69 193.459C299.024 193.823 299.279 194.253 299.437 194.721C299.596 195.19 299.655 195.686 299.611 196.178C299.487 197.528 299.492 198.869 299.496 200.054C299.496 202.639 299.496 205.081 297.221 206.238C295.06 207.33 276.492 216.625 257.964 225.626C220.703 243.714 218.437 243.718 217.082 243.718C216.59 243.727 216.102 243.636 215.645 243.453C215.189 243.269 214.774 242.996 214.424 242.649C211.057 240.156 175.435 220.464 152.32 207.837C146.981 211.137 130.085 221.57 113.239 231.893C101.336 239.193 91.7822 245.004 84.8495 249.175C70.9749 257.52 70.7169 257.52 69.4824 257.52H65.9723Z" fill="url(#paint0_linear_190_1162)"/>
<path opacity="0.13" d="M218.367 144.292L290.481 107.582L289.772 70.8713L219.685 108.319L218.367 144.292Z" fill="white"/>
<path opacity="0.13" d="M69.1921 161.827L144.411 127.725V160.343L69.1921 202.081V161.827Z" fill="white"/>
<path d="M301.237 189.86C300.55 189.106 299.706 188.511 298.764 188.118C299.855 152.703 296.875 74.2262 296.737 70.604L296.309 59.4747L286.488 64.7191L223.563 98.3603L210.642 105.273L206.28 102.743L190.701 93.6874L172.819 83.3232L148.999 69.498L145.576 67.5118L142.121 69.4335C139.077 71.1247 67.5891 110.854 64.3139 112.752L60.813 114.826L60.8637 118.882C60.8637 120.204 62.4391 250.921 62.4529 252.792C62.4626 254.64 63.203 256.41 64.5123 257.713C65.8216 259.017 67.5935 259.75 69.4409 259.751C71.5921 259.751 72.9372 258.972 76.931 256.654C79.2065 255.331 82.4587 253.4 86.6045 250.907C93.5464 246.732 103.105 240.912 115.022 233.612C130.347 224.22 145.714 214.718 152.389 210.612C174.827 222.879 207.86 241.147 212.172 244.101C213.507 245.303 215.244 245.961 217.041 245.944C219.316 245.944 221.463 245.944 259.42 227.511C277.961 218.506 296.562 209.192 298.732 208.095C300.113 207.395 302.509 205.598 302.877 201.482C302.946 200.648 302.942 199.786 302.942 198.791C302.942 197.685 302.942 196.427 303.043 195.247C303.132 194.273 303.018 193.291 302.707 192.364C302.396 191.436 301.895 190.583 301.237 189.86ZM295.613 201.874C291.338 204.031 221.514 238.981 217.041 238.981C217.004 238.986 216.966 238.983 216.93 238.971C216.894 238.96 216.861 238.941 216.833 238.916C215.571 237.147 152.173 202.556 152.173 202.556C152.173 202.556 70.9702 252.788 69.4409 252.788C69.4409 251.82 67.8516 118.822 67.8516 118.822C71.0762 116.923 145.521 75.5626 145.521 75.5626L168.18 88.6965L183.294 97.4525L206.736 111.043L210.523 113.236L223.72 106.185L289.79 70.8851C289.79 70.8851 293.476 167.339 291.421 196.233C291.421 196.298 291.463 196.326 291.55 196.326C292.232 196.326 295.401 194.561 296.018 194.561C296.087 194.561 296.124 194.584 296.12 194.634C295.77 198.187 296.249 201.551 295.613 201.874Z" fill="white"/>
<path d="M223.563 98.3419L210.642 105.254L206.28 102.724C207.281 105.445 207.42 108.408 206.677 111.211C205.933 114.013 204.345 116.518 202.127 118.384C199.909 120.25 197.17 121.387 194.283 121.639C191.396 121.891 188.502 121.247 185.994 119.794C183.486 118.341 181.487 116.149 180.27 113.518C179.052 110.888 178.675 107.945 179.19 105.092C179.704 102.239 181.086 99.6139 183.146 97.5747C185.206 95.5355 187.844 94.1813 190.701 93.6967L172.819 83.3324C171.055 84.9218 169.491 86.72 168.162 88.6873C166.616 90.9821 165.34 93.4468 164.357 96.0331C159.677 108.158 161.068 121.799 167.71 132.974L186.5 172.316C186.5 172.316 220.965 134.813 223.702 106.172C223.971 103.566 223.924 100.937 223.563 98.3419Z" fill="url(#paint1_linear_190_1162)"/>
<path d="M55.8609 212.879C53.8756 216.188 52.8852 221.086 55.9577 223.414C57.2106 224.358 58.9196 224.658 59.9653 225.833C61.5315 227.593 60.8267 230.386 59.6705 232.446C58.5142 234.506 56.9481 236.534 57.0079 238.898C57.1139 243.045 61.8724 245.216 65.8385 246.414C66.9671 246.755 68.1417 247.101 69.3072 246.875C70.4726 246.649 71.4768 245.875 72.3704 245.073C75.8626 241.924 78.6262 238.05 80.4686 233.723C81.2194 231.948 81.8091 229.93 81.1135 228.133C80.5607 226.699 79.2709 225.69 78.3496 224.492C77.2008 222.998 76.5035 221.205 76.3403 219.327C76.177 217.449 76.5546 215.563 77.4283 213.893C78.3496 212.183 79.7776 210.791 80.791 209.128C84.7572 202.639 74.9316 200.243 72.7344 195.685C71.0806 192.256 72.5179 189.196 66.7966 188.095C61.7526 187.123 59.5277 189.477 58.9887 194.339C58.6156 197.745 60.6102 200.791 60.2325 204.137C59.8547 207.482 57.5008 210.141 55.8609 212.879Z" fill="#5F5DEE"/>
<path d="M68.6254 247.774L69.5467 263.175C69.6527 264.986 70.2884 267.322 72.1033 267.382C73.7939 267.424 74.623 265.322 74.7244 263.631C75.0422 258.304 72.9647 253.175 71.3939 248.078C69.8231 242.981 68.7867 237.28 71.0438 232.451C71.6795 231.096 72.5732 229.557 71.896 228.22C71.2019 230.814 70.0944 233.279 68.6162 235.52L66.313 220.893C66.0597 219.271 65.6589 217.437 64.2263 216.635L66.0689 232.335L63.8347 231.925C62.6647 231.713 66.8704 238.23 67.0086 238.557C68.2339 241.437 68.4412 244.686 68.6254 247.774Z" fill="#5F5DEE"/>
<path d="M270.411 212.118C271.01 206.455 277.164 203.22 279.928 198.238C280.421 197.362 280.817 196.349 280.605 195.362C280.324 194.063 279.108 193.229 278.118 192.348C273.511 188.247 272.894 180.413 276.809 175.643C279.453 172.417 283.848 170.389 284.917 166.366C285.493 164.205 284.94 161.928 284.723 159.703C284.447 156.887 284.723 153.928 286.16 151.477C287.598 149.025 290.265 147.2 293.07 147.361C297.469 147.61 300.371 152.431 300.505 156.818C300.639 161.205 298.879 165.431 297.879 169.721C297.52 171.256 297.262 172.873 297.663 174.394C298.262 176.698 300.187 178.311 301.661 180.145C305.144 184.487 305.867 191.666 301.555 195.178C299.137 197.15 295.226 198.173 294.894 201.28C294.687 203.187 296.11 204.911 297.713 205.962C299.316 207.012 301.182 207.658 302.684 208.851C306.461 211.851 306.714 218.312 303.181 221.603C301.878 222.81 300.229 223.58 298.879 224.732C297.529 225.884 296.46 227.672 296.94 229.377C297.124 230.031 297.515 230.607 297.672 231.266C298.013 232.704 297.11 234.207 295.885 235.022C294.659 235.838 293.158 236.128 291.707 236.405C288.418 237.013 284.433 237.709 281.572 235.455C278.712 233.202 279.983 231.202 278.928 228.331C276.819 222.552 269.656 219.285 270.411 212.118Z" fill="#5F5DEE"/>
<path d="M288.008 212.985C287.941 212.497 287.902 212.007 287.893 211.515C287.901 211.326 287.981 211.148 288.115 211.016C288.25 210.884 288.429 210.808 288.617 210.803C288.806 210.797 288.989 210.864 289.131 210.988C289.272 211.112 289.361 211.286 289.38 211.473L289.942 219.215C290.012 220.137 290.486 221.363 291.375 221.128C291.594 219.269 292.128 217.461 292.955 215.782C293.028 215.632 293.153 215.512 293.306 215.446C293.46 215.379 293.632 215.37 293.792 215.42C293.952 215.469 294.089 215.574 294.178 215.716C294.267 215.858 294.302 216.027 294.277 216.192C294.065 217.547 293.411 218.916 292.895 220.22C287.934 232.921 296.511 247.87 291.794 260.649C291.417 261.17 290.73 260.345 290.643 259.728C289.484 251.265 289.197 242.705 289.786 234.183C290.279 227.059 288.943 220.04 288.008 212.985Z" fill="#5F5DEE"/>
<path d="M68.6254 247.774L69.5467 263.175C69.6527 264.986 70.2884 267.322 72.1033 267.382C73.7939 267.424 74.623 265.322 74.7244 263.631C75.0422 258.304 72.9647 253.175 71.3939 248.078C69.8231 242.981 68.7867 237.28 71.0438 232.451C71.6795 231.096 72.5732 229.557 71.896 228.22C71.2019 230.814 70.0944 233.279 68.6162 235.52L66.313 220.893C66.0597 219.271 65.6589 217.437 64.2263 216.635L66.0689 232.335L63.8347 231.925C62.6647 231.713 66.8704 238.23 67.0086 238.557C68.2339 241.437 68.4412 244.686 68.6254 247.774Z" fill="url(#paint2_linear_190_1162)"/>
<path d="M288.008 212.985C287.941 212.497 287.902 212.007 287.893 211.515C287.901 211.326 287.981 211.148 288.115 211.016C288.25 210.884 288.429 210.808 288.617 210.803C288.806 210.797 288.989 210.864 289.131 210.988C289.272 211.112 289.361 211.286 289.38 211.473L289.942 219.215C290.012 220.137 290.486 221.363 291.375 221.128C291.608 219.135 292.206 217.203 293.139 215.427C293.207 215.297 293.318 215.194 293.453 215.136C293.588 215.078 293.74 215.07 293.881 215.112C294.021 215.154 294.143 215.244 294.225 215.366C294.307 215.489 294.343 215.636 294.328 215.782C294.194 217.266 293.462 218.787 292.9 220.22C287.939 232.921 296.516 247.87 291.799 260.649C291.421 261.17 290.735 260.345 290.647 259.728C289.487 251.265 289.198 242.705 289.786 234.183C290.279 227.059 288.943 220.04 288.008 212.985Z" fill="url(#paint3_linear_190_1162)"/>
<path d="M216.658 91.904C213.015 81.277 204.986 71.8621 187.914 72.3967C170.515 72.9404 162.118 82.5351 158.129 92.8257C153.449 104.95 154.84 118.596 161.482 129.767L186.5 172.307L209.233 132.338C214.77 120.941 221.398 105.706 216.658 91.904ZM186.827 118.481C184.04 118.481 181.315 117.654 178.998 116.104C176.68 114.555 174.874 112.353 173.808 109.777C172.742 107.201 172.463 104.366 173.007 101.632C173.551 98.8969 174.893 96.3851 176.865 94.4137C178.836 92.4424 181.347 91.1002 184.081 90.5567C186.814 90.0133 189.648 90.2931 192.223 91.3608C194.797 92.4285 196.998 94.2361 198.546 96.5549C200.093 98.8738 200.919 101.6 200.918 104.388C200.918 106.239 200.554 108.072 199.845 109.782C199.137 111.492 198.099 113.046 196.791 114.355C195.482 115.663 193.929 116.701 192.219 117.409C190.509 118.117 188.677 118.481 186.827 118.481Z" fill="#5F5DEE"/>
<path opacity="0.2" d="M170.294 92.8257C174.933 84.019 181.05 74.8529 195.169 72.8206C192.782 72.4493 190.365 72.3073 187.951 72.3967C170.552 72.9405 162.155 82.5351 158.166 92.8257C153.485 104.95 154.877 118.596 161.519 129.767L186.537 172.307C186.537 172.307 156.765 118.481 170.294 92.8257Z" fill="white"/>
<path opacity="0.13" d="M184.883 104.388C184.883 101.726 185.636 99.1185 187.054 96.8663C188.472 94.614 190.498 92.809 192.898 91.6597C190.75 90.6358 188.378 90.1726 186.003 90.3134C183.628 90.4542 181.327 91.1944 179.315 92.4649C177.303 93.7355 175.646 95.495 174.497 97.5795C173.348 99.664 172.746 102.006 172.746 104.386C172.746 106.766 173.348 109.108 174.497 111.192C175.646 113.277 177.303 115.036 179.315 116.307C181.327 117.577 183.628 118.317 186.003 118.458C188.378 118.599 190.75 118.136 192.898 117.112C190.498 115.964 188.472 114.16 187.054 111.908C185.635 109.657 184.883 107.049 184.883 104.388Z" fill="white"/>
<path d="M145.558 75.5718C145.252 75.5718 144.959 75.6932 144.743 75.9093C144.528 76.1253 144.406 76.4184 144.406 76.7239V125.223C137.344 128.223 91.8374 147.624 88.0463 151.467C87.8651 151.69 87.7735 151.972 87.7894 152.259C87.8052 152.545 87.9273 152.815 88.1319 153.017C88.3364 153.218 88.6086 153.335 88.8953 153.346C89.1819 153.357 89.4623 153.261 89.6816 153.076C92.3165 150.403 123.345 136.665 144.402 127.73V184.551C144.402 184.857 144.523 185.15 144.739 185.366C144.955 185.582 145.248 185.703 145.553 185.703C145.859 185.703 146.152 185.582 146.368 185.366C146.583 185.15 146.705 184.857 146.705 184.551V76.7147C146.704 76.4112 146.582 76.1205 146.367 75.9063C146.152 75.6921 145.861 75.5718 145.558 75.5718Z" fill="url(#paint4_linear_190_1162)"/>
<path d="M259.268 167.85C259.121 167.582 258.874 167.382 258.58 167.296C258.287 167.21 257.971 167.243 257.702 167.389L218.367 188.961V144.292C218.367 143.987 218.246 143.694 218.03 143.478C217.814 143.261 217.521 143.14 217.216 143.14C216.91 143.14 216.617 143.261 216.401 143.478C216.185 143.694 216.064 143.987 216.064 144.292V188.906C212.296 186.699 202.94 181.233 193.649 175.85C186.62 171.781 181.009 168.56 176.965 166.274C174.56 164.915 172.69 163.878 171.4 163.182C169.134 161.961 168.369 161.551 167.715 162.495C167.567 162.707 167.167 163.472 168.148 164.247C168.371 164.419 168.649 164.506 168.931 164.491C173.229 166.624 198.698 181.404 216.055 191.574V237.534C216.055 237.839 216.176 238.132 216.392 238.348C216.608 238.564 216.901 238.686 217.207 238.686C217.512 238.686 217.805 238.564 218.021 238.348C218.237 238.132 218.358 237.839 218.358 237.534V191.597L258.803 169.417C259.072 169.271 259.272 169.024 259.359 168.73C259.447 168.436 259.414 168.12 259.268 167.85Z" fill="url(#paint5_linear_190_1162)"/>
<path opacity="0.24" d="M67.8333 118.803L144.586 76.111L144.411 94.9916L68.0313 135.306L67.8333 118.803Z" fill="white"/>
<path opacity="0.13" d="M146.714 161.827L216.064 197.929V237.534L150.127 202.155L146.714 161.827Z" fill="white"/>
<path d="M218.28 153.421C218.28 153.421 219.588 154.159 222.352 153.905" stroke="white" stroke-width="5" stroke-miterlimit="10"/>
<path d="M230.376 151.315C233.25 149.811 235.974 148.036 238.511 146.016C252.52 135.103 273.691 132.868 279.421 138.329C311.054 168.542 248.646 221.824 218.28 223.483C202.226 224.358 192.373 195.118 188.453 180.454" stroke="white" stroke-width="5" stroke-miterlimit="10" stroke-dasharray="18.4 18.4"/>
<path d="M187.407 176.353C186.799 173.832 186.486 172.307 186.486 172.307L184.399 168.744" stroke="white" stroke-width="5" stroke-miterlimit="10"/>
<path d="M180.277 161.726L176.163 154.726C165.822 137.145 146.709 144.292 146.709 144.292C146.709 144.292 126.842 158.454 123.336 184.353C119.831 210.252 94.6703 219.976 87.7146 214.538C80.7589 209.1 69.252 148.329 93.7675 130.638C109.867 119.011 123.622 124.674 131.163 129.928" stroke="white" stroke-width="5" stroke-miterlimit="10" stroke-dasharray="17.64 17.64"/>
<path d="M134.364 132.416C135.419 133.31 136.412 134.276 137.335 135.306" stroke="white" stroke-width="5" stroke-miterlimit="10"/>
</g>
<defs>
<linearGradient id="paint0_linear_190_1162" x1="182.391" y1="94.3372" x2="180.072" y2="436.109" gradientUnits="userSpaceOnUse">
<stop stop-opacity="0"/>
<stop offset="0.97"/>
</linearGradient>
<linearGradient id="paint1_linear_190_1162" x1="197.79" y1="82.3047" x2="168.659" y2="222.395" gradientUnits="userSpaceOnUse">
<stop stop-opacity="0"/>
<stop offset="0.97"/>
</linearGradient>
<linearGradient id="paint2_linear_190_1162" x1="65.7648" y1="207.155" x2="73.8144" y2="296.424" gradientUnits="userSpaceOnUse">
<stop stop-opacity="0"/>
<stop offset="0.97"/>
</linearGradient>
<linearGradient id="paint3_linear_190_1162" x1="290.712" y1="197.054" x2="296.424" y2="433.206" gradientUnits="userSpaceOnUse">
<stop stop-opacity="0"/>
<stop offset="0.97"/>
</linearGradient>
<linearGradient id="paint4_linear_190_1162" x1="119.67" y1="242.059" x2="116.037" y2="53.6544" gradientUnits="userSpaceOnUse">
<stop stop-opacity="0"/>
<stop offset="0.83" stop-opacity="0.47"/>
<stop offset="0.97"/>
</linearGradient>
<linearGradient id="paint5_linear_190_1162" x1="214.811" y1="112.407" x2="208.578" y2="359.195" gradientUnits="userSpaceOnUse">
<stop stop-opacity="0"/>
<stop offset="0.9" stop-opacity="0.83"/>
<stop offset="0.97"/>
</linearGradient>
<clipPath id="clip0_190_1162">
<rect width="253" height="219" fill="white" transform="translate(54 56)"/>
</clipPath>
</defs>
</svg>
