<svg width="25" height="24" viewBox="0 0 25 24" fill="none" xmlns="http://www.w3.org/2000/svg">
<g id="Frame" clip-path="url(#clip0_195_9)">
<path id="Vector" d="M4.19507 7H20.1951" stroke="black" stroke-width="2" stroke-linecap="round" stroke-linejoin="round"/>
<path id="Vector_2" d="M10.1951 11V17" stroke="black" stroke-width="2" stroke-linecap="round" stroke-linejoin="round"/>
<path id="Vector_3" d="M14.1951 11V17" stroke="black" stroke-width="2" stroke-linecap="round" stroke-linejoin="round"/>
<path id="Vector_4" d="M5.19507 7L6.19507 19C6.19507 19.5304 6.40578 20.0391 6.78085 20.4142C7.15593 20.7893 7.66464 21 8.19507 21H16.1951C16.7255 21 17.2342 20.7893 17.6093 20.4142C17.9844 20.0391 18.1951 19.5304 18.1951 19L19.1951 7" stroke="black" stroke-width="2" stroke-linecap="round" stroke-linejoin="round"/>
<path id="Vector_5" d="M9.19507 7V4C9.19507 3.73478 9.30043 3.48043 9.48796 3.29289C9.6755 3.10536 9.92985 3 10.1951 3H14.1951C14.4603 3 14.7146 3.10536 14.9022 3.29289C15.0897 3.48043 15.1951 3.73478 15.1951 4V7" stroke="black" stroke-width="2" stroke-linecap="round" stroke-linejoin="round"/>
</g>
<defs>
<clipPath id="clip0_195_9">
<rect width="24" height="24" fill="white" transform="translate(0.195068)"/>
</clipPath>
</defs>
</svg>
