<svg width="48" height="48" viewBox="0 0 48 48" fill="none" xmlns="http://www.w3.org/2000/svg">
<circle cx="24" cy="24" r="24" fill="white"/>
<ellipse cx="19.5528" cy="19.1855" rx="1.6" ry="1.45455" fill="#F4D5E5"/>
<ellipse cx="27.9892" cy="19.1855" rx="1.6" ry="1.45455" fill="#F4D5E5"/>
<path fill-rule="evenodd" clip-rule="evenodd" d="M17.0742 10.9115C17.1939 11.6248 17.4408 12.4351 17.7284 13.1905C17.8902 13.6154 17.7182 14.0695 17.3961 14.3275C17.1074 14.5589 16.8309 14.8508 16.5704 15.1825C15.6139 16.4003 14.9551 17.7836 14.6765 18.6964L14.0165 18.9964C14.2922 18.0932 15.0106 16.2849 15.9482 15.0115L15.0365 14.0164L15.4565 13.5964L16.327 14.5363C16.5452 14.2847 16.7779 14.054 17.0245 13.8564C17.1748 13.736 17.2253 13.549 17.1709 13.4061C16.875 12.6291 16.614 11.7782 16.4854 11.0118C16.4211 10.6286 16.3886 10.2586 16.4043 9.9251C16.42 9.59433 16.4839 9.27892 16.6298 9.02076C16.7811 8.75282 17.0156 8.55723 17.3368 8.47682C17.6463 8.39935 18.0095 8.43525 18.4206 8.5666C19.2391 8.82813 20.3522 9.50278 21.8427 10.7097C21.9005 10.7565 21.9741 10.7826 22.0389 10.7826H23.9165V11.3845H22.0389C21.8288 11.3845 21.6251 11.3056 21.4687 11.1789C19.9914 9.98262 18.9491 9.36686 18.2401 9.14033C17.8874 9.02763 17.644 9.02009 17.4808 9.06095C17.3293 9.09887 17.2251 9.18341 17.1487 9.31857C17.0668 9.46351 17.014 9.67419 17.0008 9.95369C16.9878 10.2305 17.0144 10.5549 17.0742 10.9115Z" fill="black"/>
<path fill-rule="evenodd" clip-rule="evenodd" d="M30.6472 10.8919C30.5239 11.6009 30.2667 12.4082 29.9657 13.1629C29.7918 13.5989 29.9693 14.0732 30.3082 14.3319C30.6119 14.5637 30.9021 14.8555 31.1752 15.1862C32.1803 16.4035 32.9027 18.0853 33.1951 18.9964L33.9364 19.1764C33.6469 18.2741 32.7768 16.2807 31.7948 15.0091L32.7476 13.9976L32.3215 13.5812L31.4106 14.5482C31.1767 14.2895 30.927 14.0525 30.6624 13.8505C30.5066 13.7316 30.454 13.5368 30.5128 13.3893C30.8227 12.6123 31.0956 11.7622 31.2287 10.9968C31.2952 10.6141 31.3284 10.2441 31.3105 9.91021C31.2926 9.57872 31.2233 9.26234 31.0673 9.00441C30.9054 8.73693 30.6597 8.549 30.3315 8.4735C30.0143 8.40053 29.6393 8.43661 29.2098 8.5686C28.3537 8.83169 27.1858 9.50623 25.6191 10.7145C25.5632 10.7576 25.4934 10.7815 25.4321 10.7815H23.4364V11.383H25.4321C25.6308 11.383 25.8242 11.3108 25.9756 11.1941C27.5281 9.99673 28.6278 9.37576 29.3804 9.14448C29.7552 9.02929 30.0198 9.01847 30.2014 9.06025C30.3721 9.09952 30.4847 9.18802 30.5645 9.32C30.6502 9.46154 30.706 9.66767 30.7208 9.94311C30.7355 10.2162 30.7088 10.5375 30.6472 10.8919Z" fill="black"/>
<path fill-rule="evenodd" clip-rule="evenodd" d="M15.2764 17.0764H13.8364V16.5964H15.2764V17.0764Z" fill="black"/>
<path fill-rule="evenodd" clip-rule="evenodd" d="M32.3165 16.8364H33.5165V16.3564H32.3165V16.8364Z" fill="black"/>
<path fill-rule="evenodd" clip-rule="evenodd" d="M20.5564 17.4364V16.3564H21.1564V16.8964V17.4364H20.5564ZM26.4364 17.4364V16.3564H27.0364V17.4364H26.4364Z" fill="black"/>
<path d="M21.1564 16.3564C21.1564 16.5552 21.0221 16.7164 20.8564 16.7164C20.6907 16.7164 20.5564 16.5552 20.5564 16.3564C20.5564 16.1575 20.6907 15.9964 20.8564 15.9964C21.0221 15.9964 21.1564 16.1575 21.1564 16.3564Z" fill="black"/>
<path d="M27.0364 16.3564C27.0364 16.5552 26.9021 16.7164 26.7364 16.7164C26.5707 16.7164 26.4364 16.5552 26.4364 16.3564C26.4364 16.1575 26.5707 15.9964 26.7364 15.9964C26.9021 15.9964 27.0364 16.1575 27.0364 16.3564Z" fill="black"/>
<path d="M21.1564 17.4364C21.1564 17.6352 21.0221 17.7964 20.8564 17.7964C20.6907 17.7964 20.5564 17.6352 20.5564 17.4364C20.5564 17.2375 20.6907 17.0764 20.8564 17.0764C21.0221 17.0764 21.1564 17.2375 21.1564 17.4364Z" fill="black"/>
<path d="M27.0364 17.4364C27.0364 17.6352 26.9021 17.7964 26.7364 17.7964C26.5707 17.7964 26.4364 17.6352 26.4364 17.4364C26.4364 17.2375 26.5707 17.0764 26.7364 17.0764C26.9021 17.0764 27.0364 17.2375 27.0364 17.4364Z" fill="black"/>
<path d="M32.8565 13.7704C32.8565 13.9361 32.7222 14.0704 32.5565 14.0704C32.3908 14.0704 32.2565 13.9361 32.2565 13.7704C32.2565 13.6047 32.3908 13.4704 32.5565 13.4704C32.7222 13.4704 32.8565 13.6047 32.8565 13.7704Z" fill="black"/>
<path d="M33.7565 16.5964C33.7565 16.7289 33.649 16.8364 33.5165 16.8364C33.3839 16.8364 33.2765 16.7289 33.2765 16.5964C33.2765 16.4638 33.3839 16.3564 33.5165 16.3564C33.649 16.3564 33.7565 16.4638 33.7565 16.5964Z" fill="black"/>
<path d="M15.5164 13.7764C15.5164 13.9421 15.3821 14.0764 15.2164 14.0764C15.0507 14.0764 14.9164 13.9421 14.9164 13.7764C14.9164 13.6107 15.0507 13.4764 15.2164 13.4764C15.3821 13.4764 15.5164 13.6107 15.5164 13.7764Z" fill="black"/>
<path d="M14.0764 16.8364C14.0764 16.9689 13.969 17.0764 13.8364 17.0764C13.7039 17.0764 13.5964 16.9689 13.5964 16.8364C13.5964 16.7038 13.7039 16.5964 13.8364 16.5964C13.969 16.5964 14.0764 16.7038 14.0764 16.8364Z" fill="black"/>
<g filter="url(#filter0_d_38_671)">
<path d="M10.0984 33.7394L9.05769 19.4096C9.04494 19.2341 9.1449 19.0699 9.30661 19.0006C9.40285 18.9593 9.51116 18.9562 9.6096 18.9919L11.4314 19.6518C11.6699 19.7382 11.9323 19.7307 12.1655 19.6309L15.4971 18.2048C15.7485 18.0972 16.0328 18.0972 16.2842 18.2048L19.5628 19.6082C19.8272 19.7214 20.1275 19.7153 20.387 19.5914L23.2433 18.2285C23.4996 18.1062 23.7957 18.0987 24.0579 18.2077L27.4388 19.6135C27.703 19.7234 28.0017 19.7148 28.2592 19.5898L31.0538 18.2341C31.3129 18.1084 31.6136 18.1006 31.8789 18.2125L35.2941 19.6532C35.4986 19.7394 35.726 19.7552 35.9405 19.698L38.575 18.9954C38.7139 18.9584 38.862 18.9911 38.9724 19.0831C39.0872 19.1787 39.146 19.3258 39.1287 19.4743L37.4526 33.8652C37.429 34.0678 37.4679 34.2728 37.5641 34.4526L38.3912 35.9989C38.6242 36.4345 38.5042 36.9751 38.1086 37.2711L35.6957 39.077C35.5227 39.2064 35.3125 39.2764 35.0965 39.2764H12.157C11.9277 39.2764 11.7054 39.1976 11.5273 39.0532L9.31622 37.2607C8.94458 36.9595 8.8384 36.4372 9.06289 36.0147L9.98408 34.2811C10.0724 34.1149 10.112 33.9271 10.0984 33.7394Z" fill="#D8CEFB"/>
<path d="M33.5164 34.1764L35.3764 19.8364L38.6764 18.9364L39.1564 19.1764V19.8364L37.4164 34.1764L38.6764 36.5764V37.0564L35.5564 39.3364L33.5164 34.1764Z" fill="#CABBFF"/>
<path fill-rule="evenodd" clip-rule="evenodd" d="M15.6536 17.8559C15.8286 17.7765 16.0293 17.7765 16.2043 17.8559L19.9002 19.5332C19.9611 19.5609 20.0313 19.5596 20.0912 19.5297L23.4144 17.8707C23.5941 17.781 23.8045 17.7771 23.9874 17.8601L27.6742 19.5332C27.7351 19.5609 27.8053 19.5596 27.8652 19.5297L31.1884 17.8707C31.3681 17.781 31.5786 17.7771 31.7614 17.8601L35.4893 19.5519C35.5382 19.574 35.5934 19.5778 35.6448 19.5624L38.5371 18.6961C38.9978 18.5581 39.4486 18.9387 39.3915 19.4175L37.6386 34.1182C37.6329 34.1659 37.6428 34.2142 37.6666 34.2558L38.8808 36.3773C39.0468 36.6674 38.9741 37.0358 38.7105 37.2405L35.8058 39.4962C35.6887 39.587 35.5449 39.6364 35.3968 39.6364H12.0091C11.8611 39.6364 11.7172 39.587 11.6002 39.4962L8.69547 37.2405C8.43181 37.0358 8.3591 36.6674 8.5251 36.3773L9.74511 34.2457C9.76717 34.2072 9.77726 34.1629 9.77409 34.1186L8.72286 19.4248C8.68805 18.9382 9.16697 18.5786 9.62271 18.7493L11.7627 19.5505C11.8178 19.5711 11.8788 19.569 11.9324 19.5447L15.6536 17.8559ZM16.0207 18.2628C15.9624 18.2364 15.8955 18.2364 15.8372 18.2628L12.1159 19.9516C11.9552 20.0246 11.7722 20.0308 11.607 19.9689L9.46697 19.1677C9.31506 19.1108 9.15542 19.2306 9.16702 19.3928L10.2182 34.0866C10.2278 34.2196 10.1975 34.3524 10.1313 34.4681L8.9113 36.5997C8.85597 36.6964 8.8802 36.8192 8.96809 36.8874L11.8728 39.143C11.9118 39.1733 11.9598 39.1898 12.0091 39.1898H35.3968C35.4462 39.1898 35.4941 39.1733 35.5331 39.143L38.4378 36.8874C38.5257 36.8192 38.55 36.6964 38.4946 36.5997L37.2804 34.4782C37.2088 34.3531 37.1794 34.2083 37.1965 34.0651L38.9493 19.3645C38.9684 19.2049 38.8181 19.078 38.6646 19.124L35.7722 19.9903C35.618 20.0365 35.4523 20.0253 35.3057 19.9587L31.5779 18.267C31.5169 18.2393 31.4468 18.2406 31.3869 18.2705L28.0636 19.9295C27.8839 20.0192 27.6735 20.0231 27.4906 19.9401L23.8039 18.267C23.7429 18.2393 23.6728 18.2406 23.6128 18.2705L20.2896 19.9295C20.1099 20.0192 19.8995 20.0231 19.7166 19.9401L16.0207 18.2628Z" fill="black"/>
</g>
<defs>
<filter id="filter0_d_38_671" x="4.4364" y="17.7964" width="38.96" height="29.84" filterUnits="userSpaceOnUse" color-interpolation-filters="sRGB">
<feFlood flood-opacity="0" result="BackgroundImageFix"/>
<feColorMatrix in="SourceAlpha" type="matrix" values="0 0 0 0 0 0 0 0 0 0 0 0 0 0 0 0 0 0 127 0" result="hardAlpha"/>
<feOffset dy="4"/>
<feGaussianBlur stdDeviation="2"/>
<feComposite in2="hardAlpha" operator="out"/>
<feColorMatrix type="matrix" values="0 0 0 0 0 0 0 0 0 0 0 0 0 0 0 0 0 0 0.14 0"/>
<feBlend mode="normal" in2="BackgroundImageFix" result="effect1_dropShadow_38_671"/>
<feBlend mode="normal" in="SourceGraphic" in2="effect1_dropShadow_38_671" result="shape"/>
</filter>
</defs>
</svg>
