<svg width="179" height="234" viewBox="0 0 179 234" fill="none" xmlns="http://www.w3.org/2000/svg">
<path d="M34.8125 171.469C34.8125 175.281 34.4375 178.969 33.6875 182.531C32.9583 186.073 31.9375 189.406 30.625 192.531C29.3333 195.635 27.7917 198.469 26 201.031C24.2083 203.615 22.2604 205.823 20.1562 207.656C18.0521 209.49 15.8229 210.917 13.4688 211.938C11.1354 212.958 8.77083 213.469 6.375 213.469C4.54167 213.469 3.125 213.156 2.125 212.531C1.125 211.927 0.625 211.104 0.625 210.062C0.625 209.667 0.6875 209.281 0.8125 208.906C0.9375 208.531 1.10417 208.198 1.3125 207.906C1.52083 207.615 1.77083 207.375 2.0625 207.188C2.35417 207.021 2.66667 206.938 3 206.938C3.39583 206.938 3.72917 207.135 4 207.531C4.25 207.927 4.52083 208.354 4.8125 208.812C5.10417 209.292 5.45833 209.729 5.875 210.125C6.29167 210.521 6.86458 210.719 7.59375 210.719C8.53125 210.719 9.51042 210.552 10.5312 210.219C11.5521 209.906 12.5729 209.448 13.5938 208.844C14.6354 208.24 15.6667 207.5 16.6875 206.625C17.7292 205.771 18.75 204.812 19.75 203.75C19.1667 201.646 18.4896 199.354 17.7188 196.875C16.9688 194.375 16.1667 191.865 15.3125 189.344C14.4792 186.823 13.6146 184.396 12.7188 182.062C11.8438 179.708 10.9792 177.625 10.125 175.812C9.29167 174 8.47917 172.552 7.6875 171.469C6.91667 170.365 6.22917 169.812 5.625 169.812C5.22917 169.812 4.92708 169.875 4.71875 170C4.48958 170.125 4.22917 170.302 3.9375 170.531L3.3125 169.75C3.72917 169.396 4.16667 169.031 4.625 168.656C5.08333 168.281 5.625 167.938 6.25 167.625C6.875 167.312 7.60417 167.062 8.4375 166.875C9.27083 166.667 10.2708 166.562 11.4375 166.562C12.7083 166.562 13.8854 166.854 14.9688 167.438C16.0729 168 17.0729 169.052 17.9688 170.594C18.6146 171.74 19.2812 173.115 19.9688 174.719C20.6771 176.323 21.3854 178.115 22.0938 180.094C22.8021 182.073 23.5104 184.219 24.2188 186.531C24.9479 188.823 25.6771 191.229 26.4062 193.75C27.6979 191.042 28.7396 188.177 29.5312 185.156C30.3229 182.115 30.7188 178.99 30.7188 175.781C30.7188 174.635 30.6458 173.656 30.5 172.844C30.3542 172.031 30.1875 171.344 30 170.781C29.8125 170.198 29.6458 169.708 29.5 169.312C29.3542 168.896 29.2812 168.531 29.2812 168.219C29.2812 167.906 29.4062 167.646 29.6562 167.438C29.9062 167.208 30.2083 167.031 30.5625 166.906C30.9167 166.781 31.2708 166.698 31.625 166.656C32 166.594 32.3125 166.562 32.5625 166.562C33.125 166.562 33.5521 166.677 33.8438 166.906C34.1562 167.135 34.3854 167.469 34.5312 167.906C34.6771 168.323 34.7604 168.833 34.7812 169.438C34.8021 170.042 34.8125 170.719 34.8125 171.469ZM67.9688 193.562C67.9688 193.75 67.9792 193.958 68 194.188C68.0208 194.396 68.0729 194.604 68.1562 194.812C68.2396 195 68.3646 195.156 68.5312 195.281C68.6979 195.406 68.9375 195.469 69.25 195.469C69.6458 195.469 70 195.333 70.3125 195.062C70.625 194.771 70.9167 194.479 71.1875 194.188L71.9375 194.844C71.625 195.281 71.2292 195.771 70.75 196.312C70.2917 196.833 69.7292 197.333 69.0625 197.812C68.3958 198.292 67.6354 198.688 66.7812 199C65.9271 199.333 64.9583 199.5 63.875 199.5C62.9583 199.5 62.1562 199.375 61.4688 199.125C60.8021 198.896 60.2292 198.583 59.75 198.188C59.2917 197.771 58.9479 197.292 58.7188 196.75C58.4896 196.188 58.375 195.594 58.375 194.969V193.562C57.3333 194.688 56.2396 195.677 55.0938 196.531C54.5938 196.906 54.0625 197.271 53.5 197.625C52.9375 197.979 52.3542 198.302 51.75 198.594C51.1458 198.865 50.5208 199.083 49.875 199.25C49.2292 199.417 48.5833 199.5 47.9375 199.5C46.6875 199.5 45.6146 199.281 44.7188 198.844C43.8438 198.385 43.1354 197.792 42.5938 197.062C42.0521 196.333 41.6562 195.51 41.4062 194.594C41.1562 193.677 41.0312 192.76 41.0312 191.844V172.5C41.0312 172.312 41.0208 172.115 41 171.906C40.9792 171.677 40.9271 171.469 40.8438 171.281C40.7604 171.073 40.6354 170.906 40.4688 170.781C40.3021 170.656 40.0625 170.594 39.75 170.594C39.375 170.594 39.0208 170.74 38.6875 171.031C38.375 171.302 38.0938 171.583 37.8438 171.875L37.0625 171.219C37.375 170.781 37.7604 170.302 38.2188 169.781C38.6979 169.24 39.2708 168.729 39.9375 168.25C40.6042 167.771 41.3646 167.375 42.2188 167.062C43.0938 166.729 44.0625 166.562 45.125 166.562C46.0417 166.562 46.8438 166.688 47.5312 166.938C48.2188 167.167 48.7917 167.49 49.25 167.906C49.7083 168.302 50.0521 168.781 50.2812 169.344C50.5104 169.885 50.625 170.469 50.625 171.094V191.969C50.625 192.26 50.6667 192.562 50.75 192.875C50.8542 193.167 50.9896 193.438 51.1562 193.688C51.3438 193.938 51.5729 194.146 51.8438 194.312C52.1146 194.458 52.4375 194.531 52.8125 194.531C53.4167 194.531 54.0208 194.375 54.625 194.062C55.2292 193.75 55.7812 193.385 56.2812 192.969C56.7812 192.531 57.2083 192.104 57.5625 191.688C57.9375 191.271 58.2083 190.958 58.375 190.75V172.5C58.375 172.312 58.3646 172.115 58.3438 171.906C58.3229 171.677 58.2708 171.469 58.1875 171.281C58.1042 171.073 57.9792 170.906 57.8125 170.781C57.6458 170.656 57.4062 170.594 57.0938 170.594C56.7188 170.594 56.3646 170.74 56.0312 171.031C55.7188 171.302 55.4375 171.583 55.1875 171.875L54.4062 171.219C54.7188 170.781 55.1042 170.302 55.5625 169.781C56.0417 169.24 56.6146 168.729 57.2812 168.25C57.9479 167.771 58.7083 167.375 59.5625 167.062C60.4375 166.729 61.4062 166.562 62.4688 166.562C63.3854 166.562 64.1875 166.688 64.875 166.938C65.5625 167.167 66.1354 167.49 66.5938 167.906C67.0521 168.302 67.3958 168.781 67.625 169.344C67.8542 169.885 67.9688 170.469 67.9688 171.094V193.562ZM103.531 193.562C103.531 193.75 103.542 193.958 103.562 194.188C103.583 194.396 103.635 194.604 103.719 194.812C103.802 195 103.927 195.156 104.094 195.281C104.26 195.406 104.5 195.469 104.812 195.469C105.208 195.469 105.562 195.333 105.875 195.062C106.188 194.771 106.479 194.479 106.75 194.188L107.5 194.844C107.188 195.281 106.792 195.771 106.312 196.312C105.854 196.833 105.292 197.333 104.625 197.812C103.958 198.292 103.198 198.688 102.344 199C101.49 199.333 100.521 199.5 99.4375 199.5C98.5208 199.5 97.7188 199.375 97.0312 199.125C96.3646 198.896 95.7917 198.583 95.3125 198.188C94.8542 197.771 94.5104 197.292 94.2812 196.75C94.0521 196.188 93.9375 195.594 93.9375 194.969V193.562C92.8958 194.688 91.8021 195.677 90.6562 196.531C90.1562 196.906 89.625 197.271 89.0625 197.625C88.5 197.979 87.9167 198.302 87.3125 198.594C86.7083 198.865 86.0833 199.083 85.4375 199.25C84.7917 199.417 84.1458 199.5 83.5 199.5C82.25 199.5 81.1771 199.281 80.2812 198.844C79.4062 198.385 78.6979 197.792 78.1562 197.062C77.6146 196.333 77.2188 195.51 76.9688 194.594C76.7188 193.677 76.5938 192.76 76.5938 191.844V172.5C76.5938 172.312 76.5833 172.115 76.5625 171.906C76.5417 171.677 76.4896 171.469 76.4062 171.281C76.3229 171.073 76.1979 170.906 76.0312 170.781C75.8646 170.656 75.625 170.594 75.3125 170.594C74.9375 170.594 74.5833 170.74 74.25 171.031C73.9375 171.302 73.6562 171.583 73.4062 171.875L72.625 171.219C72.9375 170.781 73.3229 170.302 73.7812 169.781C74.2604 169.24 74.8333 168.729 75.5 168.25C76.1667 167.771 76.9271 167.375 77.7812 167.062C78.6562 166.729 79.625 166.562 80.6875 166.562C81.6042 166.562 82.4062 166.688 83.0938 166.938C83.7812 167.167 84.3542 167.49 84.8125 167.906C85.2708 168.302 85.6146 168.781 85.8438 169.344C86.0729 169.885 86.1875 170.469 86.1875 171.094V191.969C86.1875 192.26 86.2292 192.562 86.3125 192.875C86.4167 193.167 86.5521 193.438 86.7188 193.688C86.9062 193.938 87.1354 194.146 87.4062 194.312C87.6771 194.458 88 194.531 88.375 194.531C88.9792 194.531 89.5833 194.375 90.1875 194.062C90.7917 193.75 91.3438 193.385 91.8438 192.969C92.3438 192.531 92.7708 192.104 93.125 191.688C93.5 191.271 93.7708 190.958 93.9375 190.75V172.5C93.9375 172.312 93.9271 172.115 93.9062 171.906C93.8854 171.677 93.8333 171.469 93.75 171.281C93.6667 171.073 93.5417 170.906 93.375 170.781C93.2083 170.656 92.9688 170.594 92.6562 170.594C92.2812 170.594 91.9271 170.74 91.5938 171.031C91.2812 171.302 91 171.583 90.75 171.875L89.9688 171.219C90.2812 170.781 90.6667 170.302 91.125 169.781C91.6042 169.24 92.1771 168.729 92.8438 168.25C93.5104 167.771 94.2708 167.375 95.125 167.062C96 166.729 96.9688 166.562 98.0312 166.562C98.9479 166.562 99.75 166.688 100.438 166.938C101.125 167.167 101.698 167.49 102.156 167.906C102.615 168.302 102.958 168.781 103.188 169.344C103.417 169.885 103.531 170.469 103.531 171.094V193.562ZM138.469 196.25C138.469 196.521 138.427 196.844 138.344 197.219C138.26 197.594 138.052 197.948 137.719 198.281C137.406 198.615 136.927 198.896 136.281 199.125C135.635 199.375 134.76 199.5 133.656 199.5C132.552 199.5 131.677 199.365 131.031 199.094C130.406 198.844 129.927 198.542 129.594 198.188C129.281 197.833 129.083 197.469 129 197.094C128.917 196.719 128.875 196.417 128.875 196.188V174.094C128.875 173.802 128.833 173.51 128.75 173.219C128.667 172.906 128.542 172.625 128.375 172.375C128.208 172.125 128 171.927 127.75 171.781C127.5 171.615 127.208 171.531 126.875 171.531C126.312 171.531 125.76 171.698 125.219 172.031C124.677 172.344 124.167 172.708 123.688 173.125C123.229 173.542 122.823 173.958 122.469 174.375C122.135 174.792 121.896 175.104 121.75 175.312V196.25C121.75 196.521 121.708 196.844 121.625 197.219C121.542 197.594 121.333 197.948 121 198.281C120.688 198.615 120.208 198.896 119.562 199.125C118.938 199.375 118.073 199.5 116.969 199.5C115.865 199.5 114.99 199.365 114.344 199.094C113.719 198.844 113.24 198.542 112.906 198.188C112.573 197.833 112.365 197.469 112.281 197.094C112.198 196.719 112.156 196.417 112.156 196.188V172.062C112.156 171.458 112.01 170.938 111.719 170.5C111.448 170.042 110.979 169.812 110.312 169.812C109.958 169.812 109.656 169.875 109.406 170C109.156 170.125 108.885 170.302 108.594 170.531L107.938 169.75C108.417 169.354 108.948 168.969 109.531 168.594C110.135 168.198 110.781 167.854 111.469 167.562C112.156 167.271 112.896 167.031 113.688 166.844C114.479 166.656 115.312 166.562 116.188 166.562C117.542 166.562 118.594 166.792 119.344 167.25C120.094 167.688 120.646 168.219 121 168.844C121.354 169.469 121.562 170.125 121.625 170.812C121.708 171.479 121.75 172.042 121.75 172.5C122.729 171.396 123.781 170.406 124.906 169.531C125.365 169.156 125.865 168.792 126.406 168.438C126.969 168.083 127.542 167.771 128.125 167.5C128.708 167.208 129.312 166.979 129.938 166.812C130.562 166.646 131.188 166.562 131.812 166.562C133.021 166.562 134.052 166.781 134.906 167.219C135.76 167.656 136.448 168.188 136.969 168.812C137.49 169.417 137.865 170.062 138.094 170.75C138.344 171.417 138.469 172 138.469 172.5C139.469 171.396 140.521 170.406 141.625 169.531C142.083 169.156 142.583 168.792 143.125 168.438C143.667 168.083 144.229 167.771 144.812 167.5C145.417 167.208 146.021 166.979 146.625 166.812C147.25 166.646 147.875 166.562 148.5 166.562C149.708 166.562 150.74 166.792 151.594 167.25C152.448 167.688 153.135 168.271 153.656 169C154.177 169.729 154.552 170.552 154.781 171.469C155.031 172.385 155.156 173.302 155.156 174.219V193.562C155.156 193.75 155.167 193.958 155.188 194.188C155.208 194.396 155.26 194.604 155.344 194.812C155.427 195 155.552 195.156 155.719 195.281C155.906 195.406 156.146 195.469 156.438 195.469C156.833 195.469 157.188 195.333 157.5 195.062C157.812 194.771 158.104 194.479 158.375 194.188L159.125 194.844C158.833 195.281 158.448 195.771 157.969 196.312C157.49 196.833 156.917 197.333 156.25 197.812C155.604 198.292 154.844 198.688 153.969 199C153.115 199.333 152.146 199.5 151.062 199.5C150.146 199.5 149.344 199.375 148.656 199.125C147.99 198.896 147.417 198.583 146.938 198.188C146.479 197.771 146.135 197.292 145.906 196.75C145.677 196.188 145.562 195.594 145.562 194.969V174.094C145.562 173.802 145.521 173.51 145.438 173.219C145.354 172.906 145.229 172.625 145.062 172.375C144.917 172.125 144.719 171.927 144.469 171.781C144.219 171.615 143.927 171.531 143.594 171.531C143.031 171.531 142.469 171.698 141.906 172.031C141.365 172.344 140.854 172.708 140.375 173.125C139.917 173.542 139.521 173.958 139.188 174.375C138.854 174.792 138.615 175.104 138.469 175.312V196.25ZM173.375 196.188C173.375 196.458 173.323 196.792 173.219 197.188C173.135 197.562 172.917 197.927 172.562 198.281C172.229 198.615 171.74 198.896 171.094 199.125C170.448 199.375 169.573 199.5 168.469 199.5C167.365 199.5 166.5 199.365 165.875 199.094C165.25 198.844 164.781 198.542 164.469 198.188C164.156 197.833 163.958 197.469 163.875 197.094C163.812 196.719 163.781 196.417 163.781 196.188V172.062C163.781 171.458 163.635 170.938 163.344 170.5C163.073 170.042 162.604 169.812 161.938 169.812C161.583 169.812 161.281 169.875 161.031 170C160.781 170.125 160.51 170.302 160.219 170.531L159.562 169.75C160.042 169.354 160.573 168.969 161.156 168.594C161.76 168.198 162.406 167.854 163.094 167.562C163.781 167.271 164.521 167.031 165.312 166.844C166.104 166.656 166.938 166.562 167.812 166.562C169.167 166.562 170.219 166.75 170.969 167.125C171.719 167.479 172.271 167.927 172.625 168.469C172.979 168.99 173.188 169.552 173.25 170.156C173.333 170.76 173.375 171.292 173.375 171.75V196.188ZM162.812 159.438C162.812 158.854 162.938 158.302 163.188 157.781C163.458 157.24 163.823 156.771 164.281 156.375C164.76 155.979 165.302 155.667 165.906 155.438C166.531 155.208 167.208 155.094 167.938 155.094C168.646 155.094 169.302 155.208 169.906 155.438C170.531 155.667 171.073 155.979 171.531 156.375C171.99 156.771 172.344 157.24 172.594 157.781C172.865 158.302 173 158.854 173 159.438C173 160.042 172.865 160.604 172.594 161.125C172.344 161.646 171.99 162.104 171.531 162.5C171.073 162.875 170.531 163.177 169.906 163.406C169.302 163.635 168.646 163.75 167.938 163.75C167.208 163.75 166.531 163.635 165.906 163.406C165.302 163.177 164.76 162.875 164.281 162.5C163.823 162.104 163.458 161.646 163.188 161.125C162.938 160.604 162.812 160.042 162.812 159.438Z" fill="#5635CC"/>
<path d="M91.828 205.8C93.0933 205.8 94.2027 206.043 95.156 206.528C96.1267 206.996 96.9327 207.655 97.574 208.504C98.2153 209.353 98.692 210.333 99.004 211.442C99.3333 212.534 99.498 213.687 99.498 214.9C99.498 216.564 99.212 218.089 98.64 219.476C98.068 220.845 97.2187 221.946 96.092 222.778C94.9653 223.593 93.544 224 91.828 224H85.328C85.0333 224 84.782 223.896 84.574 223.688C84.3833 223.48 84.288 223.229 84.288 222.934V206.84C84.288 206.545 84.3833 206.303 84.574 206.112C84.782 205.904 85.0333 205.8 85.328 205.8H91.828ZM91.568 221.972C92.9027 221.972 93.986 221.651 94.818 221.01C95.6673 220.369 96.2827 219.511 96.664 218.436C97.0627 217.361 97.262 216.183 97.262 214.9C97.262 213.964 97.1493 213.071 96.924 212.222C96.716 211.355 96.378 210.593 95.91 209.934C95.4593 209.275 94.87 208.755 94.142 208.374C93.4313 207.993 92.5733 207.802 91.568 207.802H86.238L86.446 207.594V222.232L86.29 221.972H91.568ZM108.431 224.26C107.045 224.26 105.831 223.965 104.791 223.376C103.751 222.787 102.937 221.981 102.347 220.958C101.775 219.918 101.489 218.722 101.489 217.37C101.489 215.862 101.784 214.579 102.373 213.522C102.98 212.447 103.76 211.633 104.713 211.078C105.684 210.506 106.707 210.22 107.781 210.22C108.579 210.22 109.35 210.367 110.095 210.662C110.841 210.957 111.499 211.39 112.071 211.962C112.643 212.517 113.103 213.193 113.449 213.99C113.796 214.77 113.978 215.645 113.995 216.616C113.995 216.893 113.891 217.127 113.683 217.318C113.475 217.509 113.233 217.604 112.955 217.604H102.685L102.217 215.81H112.227L111.811 216.174V215.602C111.742 214.891 111.499 214.285 111.083 213.782C110.685 213.262 110.191 212.863 109.601 212.586C109.029 212.309 108.423 212.17 107.781 212.17C107.261 212.17 106.741 212.265 106.221 212.456C105.719 212.629 105.259 212.924 104.843 213.34C104.445 213.739 104.115 214.259 103.855 214.9C103.613 215.541 103.491 216.313 103.491 217.214C103.491 218.219 103.691 219.103 104.089 219.866C104.505 220.629 105.077 221.235 105.805 221.686C106.533 222.119 107.383 222.336 108.353 222.336C108.96 222.336 109.489 222.258 109.939 222.102C110.39 221.946 110.78 221.755 111.109 221.53C111.439 221.287 111.716 221.045 111.941 220.802C112.167 220.646 112.383 220.568 112.591 220.568C112.851 220.568 113.059 220.655 113.215 220.828C113.389 221.001 113.475 221.209 113.475 221.452C113.475 221.747 113.337 222.007 113.059 222.232C112.574 222.769 111.915 223.246 111.083 223.662C110.251 224.061 109.367 224.26 108.431 224.26ZM118.838 222.934C118.838 223.229 118.734 223.48 118.526 223.688C118.318 223.896 118.066 224 117.772 224C117.477 224 117.234 223.896 117.044 223.688C116.853 223.48 116.758 223.229 116.758 222.934V205.8C116.758 205.505 116.853 205.263 117.044 205.072C117.252 204.864 117.503 204.76 117.798 204.76C118.11 204.76 118.361 204.864 118.552 205.072C118.742 205.263 118.838 205.505 118.838 205.8V222.934ZM124.302 222.934C124.302 223.229 124.198 223.48 123.99 223.688C123.799 223.896 123.556 224 123.262 224C122.95 224 122.698 223.896 122.508 223.688C122.317 223.48 122.222 223.229 122.222 222.934V211.39C122.222 211.095 122.317 210.853 122.508 210.662C122.716 210.454 122.967 210.35 123.262 210.35C123.556 210.35 123.799 210.454 123.99 210.662C124.198 210.853 124.302 211.095 124.302 211.39V222.934ZM123.262 208.608C122.828 208.608 122.508 208.521 122.3 208.348C122.092 208.175 121.988 207.906 121.988 207.542V207.178C121.988 206.814 122.1 206.545 122.326 206.372C122.551 206.199 122.872 206.112 123.288 206.112C123.704 206.112 124.016 206.199 124.224 206.372C124.432 206.545 124.536 206.814 124.536 207.178V207.542C124.536 207.906 124.423 208.175 124.198 208.348C123.99 208.521 123.678 208.608 123.262 208.608ZM127.466 210.324C127.674 210.324 127.873 210.385 128.064 210.506C128.255 210.61 128.393 210.766 128.48 210.974L132.796 221.114L132.38 221.322L136.774 211C136.965 210.532 137.285 210.307 137.736 210.324C137.996 210.324 138.221 210.411 138.412 210.584C138.603 210.757 138.698 210.974 138.698 211.234C138.698 211.338 138.681 211.442 138.646 211.546C138.629 211.633 138.603 211.711 138.568 211.78L133.55 223.324C133.359 223.757 133.056 223.983 132.64 224C132.415 224.017 132.198 223.974 131.99 223.87C131.799 223.749 131.661 223.567 131.574 223.324L126.556 211.806C126.521 211.737 126.487 211.659 126.452 211.572C126.435 211.485 126.426 211.381 126.426 211.26C126.426 211.035 126.513 210.827 126.686 210.636C126.877 210.428 127.137 210.324 127.466 210.324ZM147.022 224.26C145.635 224.26 144.422 223.965 143.382 223.376C142.342 222.787 141.527 221.981 140.938 220.958C140.366 219.918 140.08 218.722 140.08 217.37C140.08 215.862 140.375 214.579 140.964 213.522C141.571 212.447 142.351 211.633 143.304 211.078C144.275 210.506 145.297 210.22 146.372 210.22C147.169 210.22 147.941 210.367 148.686 210.662C149.431 210.957 150.09 211.39 150.662 211.962C151.234 212.517 151.693 213.193 152.04 213.99C152.387 214.77 152.569 215.645 152.586 216.616C152.586 216.893 152.482 217.127 152.274 217.318C152.066 217.509 151.823 217.604 151.546 217.604H141.276L140.808 215.81H150.818L150.402 216.174V215.602C150.333 214.891 150.09 214.285 149.674 213.782C149.275 213.262 148.781 212.863 148.192 212.586C147.62 212.309 147.013 212.17 146.372 212.17C145.852 212.17 145.332 212.265 144.812 212.456C144.309 212.629 143.85 212.924 143.434 213.34C143.035 213.739 142.706 214.259 142.446 214.9C142.203 215.541 142.082 216.313 142.082 217.214C142.082 218.219 142.281 219.103 142.68 219.866C143.096 220.629 143.668 221.235 144.396 221.686C145.124 222.119 145.973 222.336 146.944 222.336C147.551 222.336 148.079 222.258 148.53 222.102C148.981 221.946 149.371 221.755 149.7 221.53C150.029 221.287 150.307 221.045 150.532 220.802C150.757 220.646 150.974 220.568 151.182 220.568C151.442 220.568 151.65 220.655 151.806 220.828C151.979 221.001 152.066 221.209 152.066 221.452C152.066 221.747 151.927 222.007 151.65 222.232C151.165 222.769 150.506 223.246 149.674 223.662C148.842 224.061 147.958 224.26 147.022 224.26ZM156.18 224C155.886 224 155.634 223.896 155.426 223.688C155.236 223.48 155.14 223.229 155.14 222.934V211.598C155.14 211.303 155.236 211.061 155.426 210.87C155.634 210.662 155.886 210.558 156.18 210.558C156.492 210.558 156.744 210.662 156.934 210.87C157.125 211.061 157.22 211.303 157.22 211.598V215.03L156.908 214.484C157.012 213.947 157.194 213.427 157.454 212.924C157.732 212.404 158.078 211.945 158.494 211.546C158.91 211.13 159.387 210.809 159.924 210.584C160.462 210.341 161.051 210.22 161.692 210.22C162.074 210.22 162.42 210.315 162.732 210.506C163.062 210.679 163.226 210.931 163.226 211.26C163.226 211.624 163.131 211.893 162.94 212.066C162.75 212.239 162.533 212.326 162.29 212.326C162.065 212.326 161.848 212.283 161.64 212.196C161.432 212.092 161.172 212.04 160.86 212.04C160.427 212.04 159.994 212.161 159.56 212.404C159.144 212.629 158.754 212.959 158.39 213.392C158.044 213.825 157.758 214.319 157.532 214.874C157.324 215.411 157.22 215.992 157.22 216.616V222.934C157.22 223.229 157.116 223.48 156.908 223.688C156.718 223.896 156.475 224 156.18 224ZM175.066 210.35C175.361 210.35 175.603 210.454 175.794 210.662C176.002 210.853 176.106 211.095 176.106 211.39V222.726C176.106 224.182 175.82 225.387 175.248 226.34C174.676 227.311 173.905 228.03 172.934 228.498C171.981 228.966 170.897 229.2 169.684 229.2C169.008 229.2 168.358 229.131 167.734 228.992C167.11 228.853 166.599 228.671 166.2 228.446C165.871 228.29 165.637 228.091 165.498 227.848C165.377 227.623 165.359 227.38 165.446 227.12C165.567 226.808 165.741 226.591 165.966 226.47C166.209 226.349 166.46 226.349 166.72 226.47C166.997 226.591 167.396 226.756 167.916 226.964C168.453 227.189 169.051 227.302 169.71 227.302C170.611 227.302 171.383 227.129 172.024 226.782C172.665 226.435 173.159 225.924 173.506 225.248C173.853 224.589 174.026 223.766 174.026 222.778V220.932L174.338 221.582C174.061 222.119 173.688 222.587 173.22 222.986C172.752 223.385 172.215 223.697 171.608 223.922C171.001 224.147 170.334 224.26 169.606 224.26C168.618 224.26 167.777 224.052 167.084 223.636C166.408 223.203 165.888 222.613 165.524 221.868C165.177 221.105 165.004 220.23 165.004 219.242V211.39C165.004 211.095 165.099 210.853 165.29 210.662C165.498 210.454 165.749 210.35 166.044 210.35C166.356 210.35 166.607 210.454 166.798 210.662C166.989 210.853 167.084 211.095 167.084 211.39V218.774C167.084 219.953 167.344 220.845 167.864 221.452C168.384 222.041 169.19 222.336 170.282 222.336C170.975 222.336 171.599 222.18 172.154 221.868C172.726 221.556 173.177 221.131 173.506 220.594C173.853 220.039 174.026 219.433 174.026 218.774V211.39C174.026 211.095 174.121 210.853 174.312 210.662C174.503 210.454 174.754 210.35 175.066 210.35Z" fill="#7266D9"/>
<circle cx="92" cy="80" r="80" fill="white"/>
<ellipse cx="77.1758" cy="63.9515" rx="5.33333" ry="4.84848" fill="#F4D5E5"/>
<ellipse cx="105.297" cy="63.9515" rx="5.33333" ry="4.84848" fill="#F4D5E5"/>
<path fill-rule="evenodd" clip-rule="evenodd" d="M68.9138 36.3717C69.3126 38.7495 70.1355 41.4504 71.0943 43.9682C71.6336 45.3845 71.0602 46.8984 69.9867 47.7585C69.0242 48.5296 68.1027 49.5027 67.2344 50.6083C64.0459 54.6675 61.8501 59.2786 60.9213 62.3212L58.7213 63.3212C59.6404 60.3105 62.035 54.2828 65.1602 50.0384L62.1213 46.7212L63.5213 45.3212L66.4229 48.4544C67.1503 47.6158 67.9261 46.8465 68.7481 46.188C69.249 45.7866 69.4172 45.1632 69.2359 44.6871C68.2496 42.097 67.3795 39.2606 66.9511 36.7061C66.7368 35.4287 66.6284 34.1953 66.6808 33.0836C66.7329 31.9811 66.9461 30.9297 67.4322 30.0692C67.9368 29.176 68.7184 28.5241 69.7891 28.2561C70.8207 27.9978 72.0315 28.1175 73.4016 28.5553C76.1299 29.4271 79.8405 31.6759 84.8086 35.6989C85.0014 35.855 85.2466 35.9419 85.4627 35.9419H91.7213V37.9482H85.4627C84.7624 37.9482 84.0834 37.6852 83.5619 37.2629C78.6376 33.2754 75.1632 31.2229 72.8001 30.4677C71.6245 30.0921 70.8129 30.067 70.2689 30.2031C69.7639 30.3296 69.4165 30.6113 69.162 31.0619C68.8891 31.545 68.7131 32.2473 68.6691 33.179C68.6256 34.1015 68.7144 35.183 68.9138 36.3717Z" fill="black"/>
<path fill-rule="evenodd" clip-rule="evenodd" d="M114.157 36.3063C113.746 38.6696 112.889 41.3608 111.886 43.8764C111.306 45.3298 111.898 46.9106 113.027 47.773C114.04 48.5456 115.007 49.5182 115.917 50.6206C119.268 54.6782 121.676 60.2844 122.65 63.3212L125.121 63.9212C124.156 60.9137 121.256 54.2689 117.983 50.0303L121.159 46.6588L119.738 45.2705L116.702 48.4939C115.922 47.6316 115.09 46.8417 114.208 46.1684C113.689 45.772 113.513 45.1225 113.709 44.631C114.742 42.041 115.652 39.2072 116.096 36.6561C116.317 35.3804 116.428 34.1469 116.368 33.034C116.309 31.9291 116.078 30.8745 115.558 30.0147C115.018 29.1231 114.199 28.4966 113.105 28.245C112.048 28.0017 110.798 28.122 109.366 28.562C106.512 29.439 102.619 31.6874 97.3969 35.715C97.2107 35.8587 96.9779 35.9382 96.7737 35.9382H90.1213V37.9433H96.7737C97.4358 37.9433 98.0807 37.7026 98.5852 37.3136C103.76 33.3224 107.426 31.2525 109.935 30.4816C111.184 30.0976 112.066 30.0615 112.671 30.2008C113.24 30.3317 113.616 30.6267 113.882 31.0667C114.167 31.5385 114.353 32.2256 114.403 33.1437C114.452 34.0539 114.363 35.1249 114.157 36.3063Z" fill="black"/>
<path fill-rule="evenodd" clip-rule="evenodd" d="M62.9213 56.9212H58.1213V55.3212H62.9213V56.9212Z" fill="black"/>
<path fill-rule="evenodd" clip-rule="evenodd" d="M119.721 56.1212H123.721V54.5212H119.721V56.1212Z" fill="black"/>
<path fill-rule="evenodd" clip-rule="evenodd" d="M80.5213 58.1212V54.5212H82.5213V56.3212V58.1212H80.5213ZM100.121 58.1212V54.5212H102.121V58.1212H100.121Z" fill="black"/>
<path d="M82.5213 54.5212C82.5213 55.184 82.0736 55.7212 81.5213 55.7212C80.969 55.7212 80.5213 55.184 80.5213 54.5212C80.5213 53.8585 80.969 53.3212 81.5213 53.3212C82.0736 53.3212 82.5213 53.8585 82.5213 54.5212Z" fill="black"/>
<path d="M102.121 54.5212C102.121 55.184 101.674 55.7212 101.121 55.7212C100.569 55.7212 100.121 55.184 100.121 54.5212C100.121 53.8585 100.569 53.3212 101.121 53.3212C101.674 53.3212 102.121 53.8585 102.121 54.5212Z" fill="black"/>
<path d="M82.5213 58.1212C82.5213 58.784 82.0736 59.3212 81.5213 59.3212C80.969 59.3212 80.5213 58.784 80.5213 58.1212C80.5213 57.4585 80.969 56.9212 81.5213 56.9212C82.0736 56.9212 82.5213 57.4585 82.5213 58.1212Z" fill="black"/>
<path d="M102.121 58.1212C102.121 58.784 101.674 59.3212 101.121 59.3212C100.569 59.3212 100.121 58.784 100.121 58.1212C100.121 57.4585 100.569 56.9212 101.121 56.9212C101.674 56.9212 102.121 57.4585 102.121 58.1212Z" fill="black"/>
<path d="M121.521 45.9012C121.521 46.4535 121.074 46.9012 120.521 46.9012C119.969 46.9012 119.521 46.4535 119.521 45.9012C119.521 45.3489 119.969 44.9012 120.521 44.9012C121.074 44.9012 121.521 45.3489 121.521 45.9012Z" fill="black"/>
<path d="M124.521 55.3212C124.521 55.763 124.163 56.1212 123.721 56.1212C123.279 56.1212 122.921 55.763 122.921 55.3212C122.921 54.8794 123.279 54.5212 123.721 54.5212C124.163 54.5212 124.521 54.8794 124.521 55.3212Z" fill="black"/>
<path d="M63.7213 45.9212C63.7213 46.4735 63.2735 46.9212 62.7213 46.9212C62.169 46.9212 61.7213 46.4735 61.7213 45.9212C61.7213 45.3689 62.169 44.9212 62.7213 44.9212C63.2735 44.9212 63.7213 45.3689 63.7213 45.9212Z" fill="black"/>
<path d="M58.9213 56.1212C58.9213 56.5631 58.5631 56.9212 58.1213 56.9212C57.6794 56.9212 57.3213 56.5631 57.3213 56.1212C57.3213 55.6794 57.6794 55.3212 58.1213 55.3212C58.5631 55.3212 58.9213 55.6794 58.9213 56.1212Z" fill="black"/>
<g filter="url(#filter0_d_36_382)">
<path d="M45.7099 113.135L42.1728 64.432C42.1419 64.0066 42.3843 63.6085 42.7763 63.4404L43.1581 63.2768C43.3914 63.1768 43.654 63.1693 43.8926 63.2557L50.9706 65.8197C51.2091 65.9061 51.4715 65.8986 51.7047 65.7988L64.5752 60.2896C64.8265 60.1821 65.1109 60.1821 65.3622 60.2896L78.1798 65.7761C78.4441 65.8893 78.7444 65.8832 79.0039 65.7593L90.4172 60.3133C90.6734 60.191 90.9696 60.1835 91.2318 60.2925L104.432 65.7814C104.696 65.8912 104.995 65.8826 105.252 65.7577L116.464 60.319C116.723 60.1933 117.023 60.1854 117.289 60.2973L130.383 65.821C130.588 65.9073 130.815 65.9231 131.029 65.8659L140.821 63.2546C141.135 63.1709 141.469 63.2448 141.719 63.4526L142.106 63.7748C142.365 63.9909 142.498 64.3233 142.459 64.6587L136.757 113.61C136.734 113.813 136.773 114.018 136.869 114.197L140.916 121.764C141.149 122.199 141.029 122.74 140.633 123.036L130.364 130.722C130.191 130.851 129.981 130.921 129.765 130.921H51.6962C51.4669 130.921 51.2446 130.842 51.0665 130.698L41.561 122.992C41.1894 122.691 41.0832 122.169 41.3077 121.746L45.5956 113.677C45.6839 113.51 45.7235 113.323 45.7099 113.135Z" fill="#D8CEFB"/>
<path d="M123.721 113.921L129.921 66.1212L140.921 63.1212L142.521 63.9212V66.1212L136.721 113.921L140.921 121.921V123.521L130.521 131.121L123.721 113.921Z" fill="#CABBFF"/>
<path fill-rule="evenodd" clip-rule="evenodd" d="M64.1785 59.5198C64.7619 59.255 65.4308 59.255 66.0143 59.5198L78.3338 65.1107C78.537 65.2029 78.7708 65.1986 78.9704 65.0989L90.0479 59.5689C90.647 59.2699 91.3483 59.2569 91.958 59.5336L104.247 65.1107C104.45 65.2029 104.684 65.1986 104.884 65.0989L115.961 59.5689C116.56 59.2699 117.262 59.2569 117.871 59.5336L130.297 65.1728C130.46 65.2468 130.644 65.2592 130.816 65.2079L140.457 62.3201C141.993 61.8602 143.495 63.129 143.305 64.7249L137.462 113.727C137.443 113.886 137.476 114.047 137.555 114.186L141.603 121.258C142.156 122.225 141.914 123.453 141.035 124.135L131.352 131.654C130.962 131.957 130.483 132.121 129.989 132.121H52.0302C51.5367 132.121 51.0573 131.957 50.6671 131.654L40.9848 124.135C40.1059 123.453 39.8635 122.225 40.4169 121.258L44.4836 114.152C44.5571 114.024 44.5907 113.876 44.5802 113.729L41.0761 64.7493C40.96 63.1272 42.5565 61.9287 44.0756 62.4975L51.2089 65.1683C51.3925 65.237 51.5958 65.2301 51.7744 65.1491L64.1785 59.5198ZM65.4023 60.8761C65.2079 60.7878 64.9849 60.7878 64.7904 60.8761L52.3863 66.5053C51.8506 66.7485 51.2406 66.7692 50.6897 66.5629L43.5564 63.8922C43.0501 63.7026 42.5179 64.1021 42.5566 64.6428L46.0607 113.622C46.0924 114.065 45.9915 114.508 45.7709 114.893L41.7042 121.999C41.5198 122.321 41.6006 122.73 41.8935 122.958L51.5758 130.477C51.7059 130.578 51.8657 130.633 52.0302 130.633H129.989C130.154 130.633 130.314 130.578 130.444 130.477L140.126 122.958C140.419 122.73 140.5 122.321 140.315 121.999L136.268 114.927C136.029 114.51 135.931 114.028 135.988 113.55L141.831 64.5482C141.894 64.0162 141.394 63.5933 140.882 63.7466L131.241 66.6343C130.727 66.7883 130.174 66.7509 129.686 66.5291L117.259 60.8898C117.056 60.7976 116.822 60.8019 116.623 60.9016L105.545 66.4316C104.946 66.7306 104.245 66.7436 103.635 66.4669L91.346 60.8898C91.1428 60.7976 90.909 60.8019 90.7094 60.9016L79.6319 66.4316C79.0328 66.7306 78.3315 66.7436 77.7218 66.4669L65.4023 60.8761Z" fill="black"/>
</g>
<defs>
<filter id="filter0_d_36_382" x="36.1212" y="59.3212" width="111.2" height="80.8" filterUnits="userSpaceOnUse" color-interpolation-filters="sRGB">
<feFlood flood-opacity="0" result="BackgroundImageFix"/>
<feColorMatrix in="SourceAlpha" type="matrix" values="0 0 0 0 0 0 0 0 0 0 0 0 0 0 0 0 0 0 127 0" result="hardAlpha"/>
<feOffset dy="4"/>
<feGaussianBlur stdDeviation="2"/>
<feComposite in2="hardAlpha" operator="out"/>
<feColorMatrix type="matrix" values="0 0 0 0 0 0 0 0 0 0 0 0 0 0 0 0 0 0 0.14 0"/>
<feBlend mode="normal" in2="BackgroundImageFix" result="effect1_dropShadow_36_382"/>
<feBlend mode="normal" in="SourceGraphic" in2="effect1_dropShadow_36_382" result="shape"/>
</filter>
</defs>
</svg>
