<svg width="360" height="321" viewBox="0 0 360 379" fill="none" xmlns="http://www.w3.org/2000/svg">
<path opacity="0.18" d="M38.2974 59.2253C29.1916 90.5801 -7.14968 120.854 -13.888 152.699C-20.171 182.208 1.08196 211.2 26.8969 229.847C52.7118 248.493 83.6351 260.561 109.131 279.607C134.263 298.428 153.049 323.312 176.359 344.005C199.67 364.697 230.448 381.789 262.764 378.62C318.465 373.147 345.554 315.536 385.802 279.948C419.694 250.007 471.196 227.618 475.704 184.728C478.435 158.771 461.808 134.743 445.536 113.319C413.848 71.5427 352.657 69.4219 301.847 47.2988C250.208 24.8265 74.2835 -64.6802 38.2974 59.2253Z" fill="#5F5DEE"/>
<g clip-path="url(#clip0_190_1163)">
<path d="M218.254 91.0784L207.323 101.243C206.576 101.941 205.69 102.473 204.723 102.806C203.756 103.138 202.73 103.263 201.712 103.173L182.762 101.497L181.579 113.168C181.579 113.168 202.815 116.482 205.844 115.59C208.874 114.698 227.629 100.492 227.629 100.492L230.396 84.9101C226.417 84.8939 220.702 88.2041 218.254 91.0784Z" fill="#5F5DEE"/>
<path d="M218.254 91.0784L207.323 101.243C206.576 101.941 205.69 102.473 204.723 102.806C203.756 103.138 202.73 103.263 201.712 103.173L182.762 101.497L181.579 113.168C181.579 113.168 202.815 116.482 205.844 115.59C208.874 114.698 227.629 100.492 227.629 100.492L230.396 84.9101C226.417 84.8939 220.702 88.2041 218.254 91.0784Z" fill="#5F5DEE"/>
<path d="M218.254 91.0784L207.323 101.243C206.576 101.941 205.69 102.473 204.723 102.806C203.756 103.138 202.73 103.263 201.712 103.173L182.762 101.497L181.579 113.168C181.579 113.168 202.815 116.482 205.844 115.59C208.874 114.698 227.629 100.492 227.629 100.492L230.396 84.9101C226.417 84.8939 220.702 88.2041 218.254 91.0784Z" fill="url(#paint0_linear_190_1163)"/>
<path d="M290.694 243.881C290.694 250.683 272.638 256.202 250.368 256.202C228.098 256.202 210.041 250.683 210.041 243.881C210.041 243.227 209.722 237.111 210.041 236.486C213.055 230.592 230.239 231.557 250.368 231.557C269.854 231.557 286.933 230.87 290.694 236.486C291.231 237.289 290.694 243.029 290.694 243.881Z" fill="#5F5DEE"/>
<path d="M290.694 243.881C290.694 250.683 272.638 256.202 250.368 256.202C228.098 256.202 210.041 250.683 210.041 243.881C210.041 243.227 209.722 237.111 210.041 236.486C213.055 230.592 230.239 231.557 250.368 231.557C269.854 231.557 286.933 230.87 290.694 236.486C291.231 237.289 290.694 243.029 290.694 243.881Z" fill="url(#paint1_linear_190_1163)"/>
<path d="M250.368 248.806C272.639 248.806 290.694 243.29 290.694 236.486C290.694 229.681 272.639 224.165 250.368 224.165C228.096 224.165 210.041 229.681 210.041 236.486C210.041 243.29 228.096 248.806 250.368 248.806Z" fill="#5F5DEE"/>
<path d="M282.49 234.463C282.482 234.986 282.343 235.498 282.086 235.953C279.662 240.446 266.376 243.877 250.36 243.877C234.343 243.877 221.069 240.446 218.633 235.953C218.376 235.498 218.237 234.986 218.229 234.463C218.229 229.26 232.614 225.045 250.352 225.045C268.089 225.045 282.49 229.26 282.49 234.463Z" fill="url(#paint2_linear_190_1163)"/>
<path d="M282.094 235.953C279.67 240.446 266.384 243.877 250.368 243.877C234.351 243.877 221.077 240.446 218.641 235.953C221.065 231.46 234.351 228.02 250.368 228.02C266.384 228.02 279.662 231.46 282.094 235.953Z" fill="#5F5DEE"/>
<path d="M282.094 235.953C279.67 240.446 266.384 243.877 250.368 243.877C234.351 243.877 221.077 240.446 218.641 235.953C221.065 231.46 234.351 228.02 250.368 228.02C266.384 228.02 279.662 231.46 282.094 235.953Z" fill="url(#paint3_linear_190_1163)"/>
<path d="M297.852 225.857C297.852 232.663 279.796 238.177 257.526 238.177C235.256 238.177 217.199 232.663 217.199 225.857C217.199 225.203 216.88 219.087 217.199 218.461C220.213 212.567 237.397 213.536 257.526 213.536C277.013 213.536 294.092 212.85 297.852 218.461C298.39 219.265 297.852 225.025 297.852 225.857Z" fill="#5F5DEE"/>
<path d="M297.852 225.857C297.852 232.663 279.796 238.177 257.526 238.177C235.256 238.177 217.199 232.663 217.199 225.857C217.199 225.203 216.88 219.087 217.199 218.461C220.213 212.567 237.397 213.536 257.526 213.536C277.013 213.536 294.092 212.85 297.852 218.461C298.39 219.265 297.852 225.025 297.852 225.857Z" fill="url(#paint4_linear_190_1163)"/>
<path d="M257.526 230.782C279.797 230.782 297.852 225.266 297.852 218.461C297.852 211.657 279.797 206.141 257.526 206.141C235.254 206.141 217.199 211.657 217.199 218.461C217.199 225.266 235.254 230.782 257.526 230.782Z" fill="#5F5DEE"/>
<path d="M257.526 230.782C279.797 230.782 297.852 225.266 297.852 218.461C297.852 211.657 279.797 206.141 257.526 206.141C235.254 206.141 217.199 211.657 217.199 218.461C217.199 225.266 235.254 230.782 257.526 230.782Z" fill="url(#paint5_linear_190_1163)"/>
<path d="M289.648 216.443C289.641 216.964 289.502 217.475 289.244 217.928C286.82 222.421 273.53 225.857 257.514 225.857C241.497 225.857 228.227 222.421 225.791 217.928C225.534 217.475 225.395 216.964 225.387 216.443C225.387 211.239 239.768 207.021 257.506 207.021C275.243 207.021 289.648 211.239 289.648 216.443Z" fill="url(#paint6_linear_190_1163)"/>
<path d="M289.252 217.928C286.829 222.421 273.539 225.857 257.522 225.857C241.505 225.857 228.235 222.421 225.8 217.928C228.223 213.435 241.509 210 257.522 210C273.534 210 286.82 213.435 289.252 217.928Z" fill="url(#paint7_linear_190_1163)"/>
<path d="M285.98 209.839C285.98 216.645 267.928 222.159 245.658 222.159C223.388 222.159 205.331 216.645 205.331 209.839C205.331 209.189 205.012 203.069 205.331 202.447C208.345 196.553 225.529 197.518 245.658 197.518C265.144 197.518 282.223 196.832 285.98 202.447C286.517 203.246 285.98 208.987 285.98 209.839Z" fill="#5F5DEE"/>
<path d="M285.98 209.839C285.98 216.645 267.928 222.159 245.658 222.159C223.388 222.159 205.331 216.645 205.331 209.839C205.331 209.189 205.012 203.069 205.331 202.447C208.345 196.553 225.529 197.518 245.658 197.518C265.144 197.518 282.223 196.832 285.98 202.447C286.517 203.246 285.98 208.987 285.98 209.839Z" fill="url(#paint8_linear_190_1163)"/>
<path d="M245.658 214.767C267.929 214.767 285.984 209.251 285.984 202.447C285.984 195.643 267.929 190.127 245.658 190.127C223.386 190.127 205.331 195.643 205.331 202.447C205.331 209.251 223.386 214.767 245.658 214.767Z" fill="#5F5DEE"/>
<path d="M277.78 200.425C277.773 200.946 277.634 201.457 277.376 201.91C274.952 206.403 261.662 209.838 245.646 209.838C229.629 209.838 216.359 206.403 213.923 201.91C213.665 201.457 213.526 200.946 213.519 200.425C213.519 195.221 227.904 191.007 245.642 191.007C263.379 191.007 277.78 195.221 277.78 200.425Z" fill="url(#paint9_linear_190_1163)"/>
<path d="M277.384 201.91C274.96 206.403 261.67 209.839 245.654 209.839C229.637 209.839 216.367 206.403 213.931 201.91C216.355 197.417 229.637 193.982 245.654 193.982C261.67 193.982 274.952 197.417 277.384 201.91Z" fill="url(#paint10_linear_190_1163)"/>
<path d="M293.227 192.819C293.227 199.621 275.171 205.14 252.901 205.14C230.631 205.14 212.574 199.621 212.574 192.819C212.574 192.165 212.255 186.049 212.574 185.424C215.588 179.53 232.772 180.499 252.901 180.499C272.387 180.499 289.466 179.812 293.227 185.424C293.748 186.227 293.227 191.967 293.227 192.819Z" fill="#5F5DEE"/>
<path d="M293.227 192.819C293.227 199.621 275.171 205.14 252.901 205.14C230.631 205.14 212.574 199.621 212.574 192.819C212.574 192.165 212.255 186.049 212.574 185.424C215.588 179.53 232.772 180.499 252.901 180.499C272.387 180.499 289.466 179.812 293.227 185.424C293.748 186.227 293.227 191.967 293.227 192.819Z" fill="url(#paint11_linear_190_1163)"/>
<path d="M252.884 197.744C275.156 197.744 293.211 192.228 293.211 185.424C293.211 178.619 275.156 173.103 252.884 173.103C230.613 173.103 212.558 178.619 212.558 185.424C212.558 192.228 230.613 197.744 252.884 197.744Z" fill="#5F5DEE"/>
<path d="M267.055 182.279C289.327 182.279 307.381 176.763 307.381 169.958C307.381 163.154 289.327 157.638 267.055 157.638C244.783 157.638 226.729 163.154 226.729 169.958C226.729 176.763 244.783 182.279 267.055 182.279Z" fill="url(#paint12_linear_190_1163)"/>
<path d="M287.455 184.047C287.447 184.57 287.308 185.082 287.051 185.537C284.627 190.03 271.337 193.465 255.324 193.465C239.312 193.465 226.054 190.03 223.63 185.537C223.373 185.082 223.234 184.57 223.226 184.047C223.226 178.848 237.607 174.629 255.349 174.629C273.09 174.629 287.455 178.844 287.455 184.047Z" fill="url(#paint13_linear_190_1163)"/>
<path d="M287.075 185.573C284.651 190.066 271.361 193.501 255.348 193.501C239.336 193.501 226.054 190.066 223.63 185.573C226.054 181.08 239.34 177.645 255.356 177.645C271.373 177.645 284.627 181.08 287.075 185.573Z" fill="url(#paint14_linear_190_1163)"/>
<path d="M293.227 175.8C293.227 182.602 275.171 188.12 252.901 188.12C230.631 188.12 212.574 182.602 212.574 175.8C212.574 175.146 212.255 169.03 212.574 168.404C215.588 162.51 232.772 163.479 252.901 163.479C272.387 163.479 289.466 162.789 293.227 168.404C293.748 169.208 293.227 174.968 293.227 175.8Z" fill="#5F5DEE"/>
<path d="M293.227 175.8C293.227 182.602 275.171 188.12 252.901 188.12C230.631 188.12 212.574 182.602 212.574 175.8C212.574 175.146 212.255 169.03 212.574 168.404C215.588 162.51 232.772 163.479 252.901 163.479C272.387 163.479 289.466 162.789 293.227 168.404C293.748 169.208 293.227 174.968 293.227 175.8Z" fill="url(#paint15_linear_190_1163)"/>
<path d="M252.884 180.725C275.156 180.725 293.211 175.209 293.211 168.404C293.211 161.6 275.156 156.084 252.884 156.084C230.613 156.084 212.558 161.6 212.558 168.404C212.558 175.209 230.613 180.725 252.884 180.725Z" fill="#5F5DEE"/>
<path d="M252.884 180.725C275.156 180.725 293.211 175.209 293.211 168.404C293.211 161.6 275.156 156.084 252.884 156.084C230.613 156.084 212.558 161.6 212.558 168.404C212.558 175.209 230.613 180.725 252.884 180.725Z" fill="url(#paint16_linear_190_1163)"/>
<path d="M284.99 166.382C284.983 166.904 284.844 167.416 284.587 167.871C282.163 172.364 268.873 175.796 252.86 175.796C236.848 175.796 223.59 172.364 221.166 167.871C220.909 167.416 220.77 166.904 220.762 166.382C220.762 161.178 235.143 156.964 252.884 156.964C270.626 156.964 284.99 161.178 284.99 166.382Z" fill="url(#paint17_linear_190_1163)"/>
<path d="M284.611 167.871C282.187 172.364 268.897 175.796 252.884 175.796C236.872 175.796 223.59 172.364 221.166 167.871C223.59 163.378 236.876 159.939 252.892 159.939C268.909 159.939 282.163 163.378 284.611 167.871Z" fill="url(#paint18_linear_190_1163)"/>
<path d="M282.429 157.715C282.429 164.517 264.373 170.035 242.103 170.035C219.833 170.035 201.776 164.517 201.776 157.715C201.776 157.061 201.457 150.945 201.776 150.319C204.79 144.425 221.974 145.39 242.103 145.39C261.589 145.39 278.668 144.704 282.429 150.319C282.971 151.122 282.429 156.863 282.429 157.715Z" fill="#5F5DEE"/>
<path d="M282.429 157.715C282.429 164.517 264.373 170.035 242.103 170.035C219.833 170.035 201.776 164.517 201.776 157.715C201.776 157.061 201.457 150.945 201.776 150.319C204.79 144.425 221.974 145.39 242.103 145.39C261.589 145.39 278.668 144.704 282.429 150.319C282.971 151.122 282.429 156.863 282.429 157.715Z" fill="url(#paint19_linear_190_1163)"/>
<path d="M242.103 162.64C264.375 162.64 282.429 157.124 282.429 150.319C282.429 143.515 264.375 137.999 242.103 137.999C219.831 137.999 201.776 143.515 201.776 150.319C201.776 157.124 219.831 162.64 242.103 162.64Z" fill="#5F5DEE"/>
<path d="M274.241 148.297C274.234 148.819 274.095 149.331 273.837 149.786C271.414 154.279 258.128 157.711 242.111 157.711C226.094 157.711 212.82 154.279 210.385 149.786C210.127 149.331 209.988 148.819 209.981 148.297C209.981 143.093 224.365 138.879 242.103 138.879C259.84 138.879 274.241 143.077 274.241 148.297Z" fill="url(#paint20_linear_190_1163)"/>
<path d="M273.837 149.786C271.414 154.279 258.128 157.711 242.111 157.711C226.094 157.711 212.821 154.279 210.385 149.786C212.808 145.293 226.094 141.854 242.111 141.854C258.128 141.854 271.414 145.293 273.837 149.786Z" fill="#5F5DEE"/>
<path d="M273.837 149.786C271.414 154.279 258.128 157.711 242.111 157.711C226.094 157.711 212.821 154.279 210.385 149.786C212.808 145.293 226.094 141.854 242.111 141.854C258.128 141.854 271.414 145.293 273.837 149.786Z" fill="url(#paint21_linear_190_1163)"/>
<path opacity="0.19" d="M258.015 140.138C259.279 140.768 260.313 142.088 260.16 143.497C260.075 144.304 259.606 145.075 259.643 145.895C259.675 146.779 260.281 147.53 260.576 148.361C261.258 150.291 260.172 152.519 258.447 153.641C257.564 154.177 256.613 154.591 255.619 154.873C250.264 156.594 244.729 157.693 239.122 158.147C236.149 158.385 233.135 158.445 230.259 159.233C228.429 159.733 226.684 160.52 224.85 161.025C224.406 161.183 223.93 161.227 223.465 161.154C222.544 160.94 222.002 159.882 222.103 158.938C222.269 157.997 222.754 157.141 223.477 156.516C224.959 155.075 226.878 154.199 228.611 153.068C230.833 151.623 232.747 149.762 234.775 148.046C236.545 146.553 238.411 145.164 240.265 143.779C242.539 142.084 244.838 140.376 247.387 139.137C249.936 137.898 254.569 138.733 254.125 138.733C254.242 139.799 257.118 139.686 258.015 140.138Z" fill="url(#paint22_linear_190_1163)"/>
<path d="M220.762 127.281C220.762 127.281 186.483 124.403 185.513 142.694L182.904 146.969L201.776 157.715C201.776 157.715 200.205 153.218 204.503 151.03C208.801 148.842 226.147 147.776 228.833 142.694C231.519 137.611 220.762 127.281 220.762 127.281Z" fill="#25233A"/>
<path d="M226.684 131.794C226.684 131.794 204.758 140.425 202.891 149.782C201.025 159.14 201.776 157.715 201.776 157.715L209.855 163.419L221.695 161.421C221.695 161.421 224.119 156.084 231.851 154.655C239.582 153.226 250.545 150.888 252.917 144.781C255.288 138.673 254.896 131.794 254.896 131.794H226.684Z" fill="#3F3D56"/>
<path opacity="0.19" d="M161.325 288C202.323 288 235.559 281.41 235.559 273.282C235.559 265.153 202.323 258.563 161.325 258.563C120.326 258.563 87.0906 265.153 87.0906 273.282C87.0906 281.41 120.326 288 161.325 288Z" fill="url(#paint23_linear_190_1163)"/>
<path d="M216.763 272.058L210.365 273.928C209.027 274.316 207.626 274.438 206.242 274.286C204.857 274.133 203.517 273.71 202.296 273.04C201.075 272.369 199.999 271.465 199.128 270.379C198.257 269.293 197.609 268.046 197.22 266.71C197.115 266.355 197.03 265.996 196.965 265.632L192.033 238.968L216.791 229.526L223.4 260.901C223.901 263.254 223.496 265.709 222.266 267.777C221.036 269.845 219.071 271.374 216.763 272.058Z" fill="#5F5DEE"/>
<path d="M216.763 272.058L210.506 232.99L216.997 230.495L223.4 260.897C223.902 263.25 223.498 265.707 222.267 267.776C221.037 269.844 219.072 271.374 216.763 272.058Z" fill="url(#paint24_linear_190_1163)"/>
<path d="M142.315 267.937L135.686 268.445C134.291 268.547 132.89 268.374 131.563 267.934C130.235 267.495 129.008 266.799 127.949 265.885C126.891 264.972 126.023 263.859 125.396 262.61C124.768 261.361 124.392 260.001 124.29 258.608C124.266 258.252 124.258 257.901 124.266 257.546L124.892 230.435L151.036 226.321L151.093 258.39C151.104 260.794 150.206 263.114 148.578 264.885C146.95 266.655 144.713 267.745 142.315 267.937Z" fill="#5F5DEE"/>
<path d="M144.262 247.369L143.858 267.646C143.858 267.646 150.996 265.898 151.105 258.39C151.206 251.608 151.404 241.613 151.404 241.613L144.262 247.369Z" fill="url(#paint25_linear_190_1163)"/>
<path d="M235.353 191.402C230.736 221.008 199.191 243.914 160.977 243.914C122.764 243.914 91.1948 221.008 86.5776 191.402C91.1948 161.804 122.735 138.899 160.977 138.899C199.219 138.899 230.736 161.804 235.353 191.402Z" fill="#5F5DEE"/>
<path d="M235.365 191.402C231.758 214.533 211.726 233.571 184.895 240.793C211.706 233.567 231.754 214.529 235.353 191.402C230.736 161.804 199.219 138.899 160.977 138.899C122.735 138.899 91.1948 161.804 86.5777 191.402C86.1916 193.888 85.9984 196.399 86 198.915C86 232.057 119.589 258.935 160.977 258.935C202.366 258.935 235.935 232.057 235.935 198.915C235.939 196.4 235.748 193.888 235.365 191.402ZM91.8815 207.263C91.4412 206.435 91.0292 205.596 90.6374 204.748C91.0279 205.596 91.4426 206.434 91.8815 207.263C99.6536 221.973 114.543 233.688 133.085 239.643C114.531 233.672 99.6495 221.953 91.8815 207.263ZM135.464 240.365C136.272 240.594 137.072 240.815 137.863 241.027C137.055 240.797 136.256 240.579 135.464 240.365ZM179.995 241.98C180.803 241.806 181.64 241.625 182.455 241.427C181.645 241.615 180.825 241.8 179.995 241.98Z" fill="#5F5DEE"/>
<path d="M236.718 158.849C236.718 158.849 240.176 145.891 253.805 147.041C267.435 148.192 265.884 167.411 253.805 177.721C253.805 177.737 240.475 161.283 236.718 158.849Z" fill="#5F5DEE"/>
<path d="M236.718 158.962C236.718 158.962 240.176 146.004 253.805 147.154C267.435 148.305 265.884 167.524 253.805 177.834C253.805 177.85 240.475 161.396 236.718 158.962Z" fill="url(#paint26_linear_190_1163)"/>
<path d="M243.618 162.292C243.618 162.292 246.041 153.262 255.522 154.065C265.003 154.869 263.936 168.259 255.522 175.461C255.522 175.453 246.235 163.988 243.618 162.292Z" fill="#5F5DEE"/>
<path d="M243.618 162.292C243.618 162.292 246.041 153.262 255.522 154.065C265.003 154.869 263.936 168.259 255.522 175.461C255.522 175.453 246.235 163.988 243.618 162.292Z" fill="url(#paint27_linear_190_1163)"/>
<path d="M236.419 199.068C236.419 232.211 202.855 259.088 161.462 259.088C120.069 259.088 86.4849 232.211 86.4849 199.068C86.4851 196.554 86.6783 194.044 87.0625 191.56C91.6797 221.142 123.212 244.067 161.462 244.067C170.648 244.091 179.784 242.731 188.563 240.03C192.013 237.608 187.525 225.191 187.428 224.912L193.948 228.299L200.193 235.456C219.381 226.172 232.945 210.194 235.85 191.568C236.234 194.049 236.424 196.557 236.419 199.068Z" fill="url(#paint28_linear_190_1163)"/>
<path d="M280.741 205.987C280.747 212.762 279.272 219.457 276.419 225.602C268.744 242.153 251.689 253.638 231.867 253.638C225.245 253.66 218.688 252.349 212.584 249.782C206.481 247.216 200.958 243.448 196.343 238.702C187.788 229.953 182.996 218.208 182.989 205.975C182.989 179.655 204.875 158.34 231.867 158.34C258.859 158.34 280.741 179.667 280.741 205.987Z" fill="#5F5DEE"/>
<path d="M280.741 205.987C280.747 212.762 279.272 219.457 276.419 225.602C268.744 242.153 251.689 253.638 231.867 253.638C225.245 253.66 218.688 252.349 212.584 249.782C206.481 247.216 200.958 243.448 196.343 238.702C187.788 229.953 182.996 218.208 182.989 205.975C182.989 179.655 204.875 158.34 231.867 158.34C258.859 158.34 280.741 179.667 280.741 205.987Z" fill="url(#paint29_linear_190_1163)"/>
<path d="M242.151 200.235C244.112 200.235 245.702 198.634 245.702 196.658C245.702 194.683 244.112 193.082 242.151 193.082C240.19 193.082 238.601 194.683 238.601 196.658C238.601 198.634 240.19 200.235 242.151 200.235Z" fill="#5F5DEE"/>
<path d="M265.035 197.26C266.996 197.26 268.586 195.658 268.586 193.683C268.586 191.708 266.996 190.106 265.035 190.106C263.074 190.106 261.485 191.708 261.485 193.683C261.485 195.658 263.074 197.26 265.035 197.26Z" fill="#5F5DEE"/>
<path d="M242.151 200.235C244.112 200.235 245.702 198.634 245.702 196.658C245.702 194.683 244.112 193.082 242.151 193.082C240.19 193.082 238.601 194.683 238.601 196.658C238.601 198.634 240.19 200.235 242.151 200.235Z" fill="url(#paint30_linear_190_1163)"/>
<path d="M265.035 197.26C266.996 197.26 268.586 195.658 268.586 193.683C268.586 191.708 266.996 190.106 265.035 190.106C263.074 190.106 261.485 191.708 261.485 193.683C261.485 195.658 263.074 197.26 265.035 197.26Z" fill="url(#paint31_linear_190_1163)"/>
<path d="M269.963 202.548L273.752 223.043C272.399 223.706 270.961 224.181 269.479 224.456C262.062 225.832 255.15 222.119 254.044 216.144C252.937 210.17 258.051 204.183 265.467 202.794C266.948 202.507 268.46 202.424 269.963 202.548Z" fill="#5F5DEE"/>
<path d="M269.963 202.548L273.752 223.043C272.399 223.706 270.961 224.181 269.479 224.456C262.062 225.832 255.15 222.119 254.044 216.144C252.937 210.17 258.051 204.183 265.467 202.794C266.948 202.507 268.46 202.424 269.963 202.548Z" fill="url(#paint32_linear_190_1163)"/>
<path d="M273.476 223.142C276.48 222.591 278.069 217.542 277.026 211.864C275.982 206.187 272.701 202.032 269.697 202.584C266.693 203.135 265.104 208.184 266.148 213.862C267.191 219.539 270.472 223.694 273.476 223.142Z" fill="#5F5DEE"/>
<path d="M273.476 223.142C276.48 222.591 278.069 217.542 277.026 211.864C275.982 206.187 272.701 202.032 269.697 202.584C266.693 203.135 265.104 208.184 266.148 213.862C267.191 219.539 270.472 223.694 273.476 223.142Z" fill="url(#paint33_linear_190_1163)"/>
<path d="M271.195 212.248C271.765 214.243 271.91 215.95 271.519 216.063C271.127 216.176 270.343 214.654 269.774 212.66C269.204 210.666 269.059 208.962 269.45 208.849C269.842 208.736 270.626 210.258 271.195 212.248Z" fill="url(#paint34_linear_190_1163)"/>
<path d="M275.11 211.025C275.696 213.044 275.849 214.804 275.457 214.921C275.065 215.038 274.274 213.476 273.692 211.437C273.11 209.398 272.953 207.655 273.345 207.542C273.736 207.428 274.528 208.987 275.11 211.025Z" fill="url(#paint35_linear_190_1163)"/>
<path d="M276.483 224.747L276.419 225.602C268.743 242.153 251.689 253.638 231.867 253.638C225.245 253.66 218.687 252.348 212.584 249.782C206.481 247.216 200.958 243.448 196.343 238.702C196.343 238.702 200.08 233.317 227.488 237.935C254.896 242.553 276.483 224.747 276.483 224.747Z" fill="url(#paint36_linear_190_1163)"/>
<path d="M210.736 169.922C210.736 169.922 207.282 156.964 193.649 158.118C180.016 159.273 181.571 178.488 193.649 188.798C193.649 188.815 206.979 172.36 210.736 169.922Z" fill="#5F5DEE"/>
<path d="M211.193 169.922C211.193 169.922 207.739 156.964 194.105 158.118C180.472 159.273 182.027 178.488 194.105 188.798C194.105 188.815 207.436 172.36 211.193 169.922Z" fill="url(#paint37_linear_190_1163)"/>
<path d="M209.149 171.642C209.149 171.642 206.725 162.615 197.244 163.419C187.763 164.222 188.83 177.608 197.244 184.814C197.244 184.806 206.531 173.353 209.149 171.642Z" fill="#5F5DEE"/>
<path d="M209.149 171.642C209.149 171.642 206.725 162.615 197.244 163.419C187.763 164.222 188.83 177.608 197.244 184.814C197.244 184.806 206.531 173.353 209.149 171.642Z" fill="url(#paint38_linear_190_1163)"/>
<path d="M188.042 155.216L184.564 156.774L181.086 158.332C160.747 146.222 142.533 146.432 132.967 147.792C130.588 148.099 128.239 148.608 125.947 149.314L136.09 145.277C136.09 145.277 141.951 142.855 157.677 143.747C177.612 144.894 188.042 155.216 188.042 155.216Z" fill="#25233A"/>
<path d="M188.042 155.216L184.564 156.774L176.081 150.933C162.533 142.714 137.839 146.149 137.839 146.149L132.947 147.792C130.568 148.099 128.219 148.608 125.927 149.314L136.07 145.277C136.07 145.277 141.931 142.855 157.657 143.747C177.612 144.894 188.042 155.216 188.042 155.216Z" fill="#5F5DEE"/>
<path d="M188.042 155.216L184.564 156.774L176.081 150.933C162.533 142.714 137.839 146.149 137.839 146.149L132.947 147.792C130.568 148.099 128.219 148.608 125.927 149.314L136.07 145.277C136.07 145.277 141.931 142.855 157.657 143.747C177.612 144.894 188.042 155.216 188.042 155.216Z" fill="url(#paint39_linear_190_1163)"/>
<path d="M179.264 281L172.631 281.666C169.822 281.935 167.021 281.077 164.845 279.282C162.668 277.488 161.295 274.902 161.026 272.095C160.993 271.748 160.977 271.4 160.977 271.053V243.914L187.032 239.19L187.84 271.251C187.907 273.658 187.06 276.001 185.469 277.81C183.879 279.619 181.662 280.758 179.264 281Z" fill="#5F5DEE"/>
<path d="M113.154 273.952L106.525 274.614C105.133 274.748 103.729 274.607 102.392 274.199C101.055 273.791 99.8118 273.123 98.733 272.235C97.6542 271.346 96.761 270.254 96.1046 269.021C95.4481 267.788 95.0412 266.437 94.9071 265.046C94.8748 264.695 94.8586 264.34 94.8586 263.985V211.231L120.913 232.142L120.974 234.665L121.705 264.183C121.776 266.589 120.934 268.933 119.348 270.745C117.762 272.557 115.549 273.702 113.154 273.952Z" fill="#5F5DEE"/>
<path d="M113.154 273.952C113.154 273.952 114.689 240.85 116.789 237.184C118.89 233.519 120.986 234.665 120.986 234.665L121.717 264.183C121.787 266.59 120.943 268.936 119.355 270.748C117.767 272.56 115.551 273.704 113.154 273.952Z" fill="url(#paint40_linear_190_1163)"/>
<path d="M179.264 281L180.209 241.439L187.044 240.179L187.816 271.263C187.881 273.664 187.036 276.002 185.45 277.807C183.864 279.612 181.655 280.753 179.264 281Z" fill="url(#paint41_linear_190_1163)"/>
<path d="M219.684 111.372L219.013 125.981C219.013 125.981 219.696 133.962 226.414 134.773C233.131 135.585 254.912 131.794 254.912 131.794C254.912 131.794 256.391 106.104 254.912 100.218C253.434 94.3321 253.458 86.2664 246.874 86.1332C243.573 86.0646 234.941 84.3005 230.397 84.9222C228.023 85.2483 225.828 86.3608 224.163 88.0815C222.497 89.8022 221.458 92.0316 221.211 94.4128C220.762 98.6354 220.213 104.38 219.684 111.372Z" fill="#5F5DEE"/>
<path d="M219.684 111.372L219.013 125.981C219.013 125.981 219.696 133.962 226.414 134.773C233.131 135.585 254.912 131.794 254.912 131.794C254.912 131.794 256.391 106.104 254.912 100.218C253.434 94.3321 253.458 86.2664 246.874 86.1332C243.573 86.0646 234.941 84.3005 230.397 84.9222C228.023 85.2483 225.828 86.3608 224.163 88.0815C222.497 89.8022 221.458 92.0316 221.211 94.4128C220.762 98.6354 220.213 104.38 219.684 111.372Z" fill="url(#paint42_linear_190_1163)"/>
<path d="M243.299 91.1995C245.1 87.5138 250.206 86.985 252.59 90.3235C254.08 92.4186 255.159 95.5472 254.92 100.218C254.492 108.631 248.304 116.769 243.88 121.573C242.624 122.94 241.076 124.007 239.351 124.694C237.626 125.381 235.768 125.67 233.915 125.541L207.464 122.489L208.676 111.993L232.861 112.599L243.299 91.1995Z" fill="#5F5DEE"/>
<path d="M243.299 91.1995C245.1 87.5138 250.206 86.985 252.59 90.3235C254.08 92.4186 255.159 95.5472 254.92 100.218C254.492 108.631 248.304 116.769 243.88 121.573C242.624 122.94 241.076 124.007 239.351 124.694C237.626 125.381 235.768 125.67 233.915 125.541L207.464 122.489L208.676 111.993L232.861 112.599L243.299 91.1995Z" fill="#5F5DEE"/>
<path d="M243.299 91.1995C245.1 87.5138 250.206 86.985 252.59 90.3235C254.08 92.4186 255.159 95.5472 254.92 100.218C254.492 108.631 248.304 116.769 243.88 121.573C242.624 122.94 241.076 124.007 239.351 124.694C237.626 125.381 235.768 125.67 233.915 125.541L207.464 122.489L208.676 111.993L232.861 112.599L243.299 91.1995Z" fill="#5F5DEE"/>
<path d="M243.299 91.1995C245.1 87.5138 250.206 86.985 252.59 90.3235C254.08 92.4186 255.159 95.5472 254.92 100.218C254.492 108.631 248.304 116.769 243.88 121.573C242.624 122.94 241.076 124.007 239.351 124.694C237.626 125.381 235.768 125.67 233.915 125.541L207.464 122.489L208.676 111.993L232.861 112.599L243.299 91.1995Z" fill="url(#paint43_linear_190_1163)"/>
<path d="M166.415 104.323C165.3 104.86 164.108 105.611 163.845 106.826C164.819 106.833 165.79 106.734 166.742 106.531L164.209 109.143C164.054 109.265 163.952 109.441 163.922 109.636C163.922 110.06 164.5 110.185 164.92 110.148C166.33 110.039 167.727 109.798 169.093 109.43C169.19 110.096 168.168 110.362 167.942 110.996C167.74 111.553 168.281 112.147 168.858 112.26C169.449 112.306 170.042 112.226 170.6 112.026C172.494 111.569 174.477 111.836 176.425 111.888C178.372 111.941 180.464 111.715 181.971 110.471C182.322 110.207 182.593 109.851 182.754 109.442C182.859 109.02 182.881 108.581 182.819 108.15C182.742 106.939 183.554 104.4 183.154 103.387C182.775 102.438 181.034 101.772 180.129 101.623C174.558 100.69 168.463 103.354 166.415 104.323Z" fill="url(#paint44_linear_190_1163)"/>
<path d="M201.395 118.199C205.616 103.735 200.215 89.4374 189.331 86.265C178.446 83.0925 166.201 92.2463 161.979 106.711C157.758 121.175 163.159 135.472 174.043 138.645C184.928 141.817 197.173 132.663 201.395 118.199Z" fill="#5F5DEE"/>
<path d="M201.395 118.199C205.616 103.735 200.215 89.4374 189.331 86.265C178.446 83.0925 166.201 92.2463 161.979 106.711C157.758 121.175 163.159 135.472 174.043 138.645C184.928 141.817 197.173 132.663 201.395 118.199Z" fill="url(#paint45_linear_190_1163)"/>
<path d="M197.677 116.731C201.951 102.283 196.585 87.9604 185.691 84.7418C174.797 81.5232 162.501 90.6269 158.226 105.076C153.952 119.524 159.318 133.846 170.212 137.065C181.106 140.284 193.402 131.18 197.677 116.731Z" fill="#5F5DEE"/>
<path d="M197.677 116.731C201.951 102.283 196.585 87.9604 185.691 84.7418C174.797 81.5232 162.501 90.6269 158.226 105.076C153.952 119.524 159.318 133.846 170.212 137.065C181.106 140.284 193.402 131.18 197.677 116.731Z" fill="url(#paint46_linear_190_1163)"/>
<path d="M197.677 116.731C201.951 102.283 196.585 87.9604 185.691 84.7418C174.797 81.5232 162.501 90.6269 158.226 105.076C153.952 119.524 159.318 133.846 170.212 137.065C181.106 140.284 193.402 131.18 197.677 116.731Z" fill="url(#paint47_linear_190_1163)"/>
<path d="M191.399 114.997C187.715 127.228 178.02 135.092 169.747 132.565C169.456 132.476 169.17 132.375 168.891 132.266C161.216 129.194 157.895 117.649 161.442 105.857C165.126 93.6337 174.821 85.7659 183.094 88.2889C184.322 88.6651 185.475 89.254 186.499 90.0288C192.316 94.4128 194.526 104.61 191.399 114.997Z" fill="url(#paint48_linear_190_1163)"/>
<path d="M191.399 114.997C187.715 127.228 178.02 135.092 169.747 132.565C169.456 132.476 169.169 132.375 168.891 132.266C163.078 127.882 160.864 117.685 163.991 107.298C167.679 95.0708 177.37 87.203 185.643 89.7301C185.933 89.8189 186.22 89.9198 186.499 90.0288C192.316 94.4128 194.526 104.61 191.399 114.997Z" fill="#5F5DEE"/>
<path d="M191.399 114.997C187.715 127.228 178.02 135.092 169.747 132.565C169.456 132.476 169.169 132.375 168.891 132.266C163.078 127.882 160.864 117.685 163.991 107.298C167.679 95.0708 177.37 87.203 185.643 89.7301C185.933 89.8189 186.22 89.9198 186.499 90.0288C192.316 94.4128 194.526 104.61 191.399 114.997Z" fill="url(#paint49_linear_190_1163)"/>
<path d="M192.861 115.223C191.746 115.76 190.559 116.511 190.292 117.726C191.266 117.733 192.237 117.634 193.189 117.431L190.668 120.023C190.516 120.148 190.416 120.325 190.385 120.519C190.385 120.923 190.959 121.064 191.379 121.032C192.789 120.922 194.186 120.681 195.552 120.313C195.649 120.979 194.627 121.246 194.4 121.88C194.198 122.437 194.74 123.03 195.317 123.143C195.908 123.187 196.501 123.107 197.058 122.909C198.953 122.449 200.936 122.719 202.883 122.768C204.83 122.816 206.923 122.598 208.434 121.351C208.785 121.088 209.055 120.731 209.213 120.321C209.317 119.899 209.339 119.46 209.278 119.03C209.201 117.818 210.013 115.279 209.613 114.27C209.238 113.321 207.492 112.655 206.588 112.506C201.009 111.541 194.909 114.222 192.861 115.223Z" fill="url(#paint50_linear_190_1163)"/>
<path d="M161.701 97.057C161.935 98.365 162.104 99.684 162.205 101.009C162.331 102.951 160.279 101.671 160.279 101.671C160.279 101.671 161.49 103.221 161.244 104.093C160.998 104.965 159.798 104.093 159.798 104.093C159.798 104.093 160.392 105.377 160.25 106.188C160.109 107 158.509 106.342 158.509 106.342C158.509 106.342 159.386 107.375 159.212 108.304C159.039 109.232 157.81 109.018 157.81 109.018C157.81 109.018 155.544 107.742 156.195 105.918C156.845 104.093 155.859 101.251 156.934 100.71C158.008 100.169 158.687 97.8845 159.826 97.6463C160.47 97.5168 161.098 97.3192 161.701 97.057Z" fill="url(#paint51_linear_190_1163)"/>
<path d="M232.61 88.3454C233.109 88.6249 233.693 88.7084 234.25 88.5796C237.652 88.1625 240.96 87.1758 244.034 85.6609C242.939 82.6737 243.404 79.3675 243.141 76.1905C243.048 75.1247 242.737 73.8935 241.784 73.4575C241.077 73.1386 240.253 73.3647 239.542 73.6715C238.123 74.3216 236.862 75.272 235.847 76.4569C234.831 77.6418 234.085 79.0329 233.66 80.5341C233.257 81.8663 233.309 83.2751 232.945 84.6113C232.634 85.6488 231.334 87.421 232.61 88.3454Z" fill="url(#paint52_linear_190_1163)"/>
<path d="M225.61 59.5344C225.61 59.5344 223.012 73.6311 225.824 77.894C228.635 82.1569 232.691 83.2792 236.73 80.2798C239.331 78.2691 241.651 75.9204 243.63 73.296C243.63 73.296 246.187 72.9408 247.096 70.7488C248.005 68.5568 245.427 67.3417 244.042 68.254C242.656 69.1664 246.591 62.1705 244.878 61.355C243.165 60.5396 234.9 48.4775 225.61 59.5344Z" fill="url(#paint53_linear_190_1163)"/>
<path d="M235.603 47.8397C234.222 47.7102 232.828 47.8557 231.503 48.2676C228.094 49.1839 224.753 50.8189 221.231 50.5766C220.536 50.5282 219.736 50.4434 219.243 50.94C219.04 51.1908 218.922 51.5003 218.908 51.8229C218.893 52.1455 218.982 52.4642 219.162 52.7323C219.53 53.2616 220.012 53.7017 220.572 54.0201C219.764 54.4036 219.7 55.659 220.285 56.3413C220.871 57.0235 221.845 57.2334 222.741 57.2294C221.958 57.407 221.808 58.614 222.378 59.1873C222.947 59.7605 223.864 59.7968 224.644 59.5909C225.533 59.2893 226.397 58.9195 227.229 58.4848C229.653 57.4474 232.36 57.3949 234.981 57.5725C237.72 57.7582 240.738 58.3436 242.394 60.5477C242.892 61.2254 243.228 62.0084 243.376 62.8364C243.524 63.6643 243.479 64.5152 243.246 65.3233C242.725 67.0753 241.307 68.6537 241.562 70.4662C242.773 70.1756 243.08 68.2581 244.312 67.9876C245.286 67.7696 246.126 67.6929 246.966 68.8717C247.221 69.2269 247.912 67.8826 248.178 67.5314C249.107 66.2719 250.053 64.9761 250.485 63.4704C250.779 62.3878 250.799 61.2489 250.541 60.1569C250.284 59.0649 249.758 58.0545 249.01 57.2173C248.663 56.9012 248.372 56.5286 248.15 56.1152C248.017 55.64 247.94 55.1509 247.92 54.6579C247.681 53.2208 246.482 52.1672 245.339 51.271C243.429 49.7693 241.469 48.3456 239.457 47C239.017 48.0899 239.295 48.9821 238.245 48.9377C237.534 48.9094 236.464 47.9527 235.603 47.8397Z" fill="#3F3D56"/>
<path d="M242.939 77.7689C242.636 77.5031 242.411 77.1595 242.289 76.7752C242.168 76.391 242.153 75.9807 242.248 75.589C242.446 74.8062 242.901 74.1125 243.541 73.619C244.103 73.1674 244.728 72.799 245.395 72.525C245.371 73.0538 242.733 77.6236 242.939 77.7689Z" fill="#3F3D56"/>
<path d="M243.662 70.3855C243.686 70.0817 243.793 69.7902 243.969 69.5418C244.078 69.4398 244.205 69.3602 244.345 69.3076C244.572 69.1946 244.822 69.1365 245.076 69.1381C245.205 69.1435 245.331 69.184 245.439 69.2551C245.547 69.3262 245.634 69.4253 245.69 69.5418C245.736 69.671 245.753 69.809 245.739 69.9455C245.693 70.5025 245.478 71.0324 245.124 71.465C244.77 71.8976 244.292 72.2123 243.755 72.3676C243.655 72.4 243.548 72.4 243.448 72.3676C243.389 72.3399 243.336 72.3006 243.292 72.252C243.249 72.2035 243.215 72.1467 243.194 72.085C243.113 71.9391 243.069 71.776 243.065 71.6096C243.061 71.4431 243.097 71.2781 243.169 71.1283C243.355 70.8497 243.581 70.7488 243.662 70.3855Z" fill="url(#paint54_linear_190_1163)"/>
</g>
<defs>
<linearGradient id="paint0_linear_190_1163" x1="219.377" y1="116.874" x2="206.962" y2="100.311" gradientUnits="userSpaceOnUse">
<stop/>
<stop offset="1" stop-opacity="0"/>
</linearGradient>
<linearGradient id="paint1_linear_190_1163" x1="217.922" y1="243.849" x2="298.955" y2="243.849" gradientUnits="userSpaceOnUse">
<stop/>
<stop offset="1" stop-opacity="0"/>
</linearGradient>
<linearGradient id="paint2_linear_190_1163" x1="250.529" y1="218.853" x2="250.396" y2="231.028" gradientUnits="userSpaceOnUse">
<stop stop-color="#68E1FD"/>
<stop offset="1" stop-color="#69B9EB"/>
</linearGradient>
<linearGradient id="paint3_linear_190_1163" x1="254.375" y1="249.836" x2="251.704" y2="240.574" gradientUnits="userSpaceOnUse">
<stop/>
<stop offset="0.84" stop-opacity="0"/>
</linearGradient>
<linearGradient id="paint4_linear_190_1163" x1="224.992" y1="225.828" x2="306.024" y2="225.828" gradientUnits="userSpaceOnUse">
<stop/>
<stop offset="1" stop-opacity="0"/>
</linearGradient>
<linearGradient id="paint5_linear_190_1163" x1="266.514" y1="230.661" x2="274.985" y2="242.175" gradientUnits="userSpaceOnUse">
<stop offset="0.32" stop-color="white" stop-opacity="0"/>
<stop offset="1" stop-color="white"/>
</linearGradient>
<linearGradient id="paint6_linear_190_1163" x1="274.504" y1="193.586" x2="265.245" y2="206.058" gradientUnits="userSpaceOnUse">
<stop/>
<stop offset="1" stop-opacity="0"/>
</linearGradient>
<linearGradient id="paint7_linear_190_1163" x1="278.123" y1="194.64" x2="255.717" y2="220.006" gradientUnits="userSpaceOnUse">
<stop/>
<stop offset="0.84" stop-opacity="0"/>
</linearGradient>
<linearGradient id="paint8_linear_190_1163" x1="271.482" y1="215.49" x2="282.352" y2="218.663" gradientUnits="userSpaceOnUse">
<stop/>
<stop offset="1" stop-opacity="0"/>
</linearGradient>
<linearGradient id="paint9_linear_190_1163" x1="245.827" y1="184.81" x2="245.69" y2="196.985" gradientUnits="userSpaceOnUse">
<stop stop-color="#68E1FD"/>
<stop offset="1" stop-color="#69B9EB"/>
</linearGradient>
<linearGradient id="paint10_linear_190_1163" x1="213.931" y1="201.91" x2="277.384" y2="201.91" gradientUnits="userSpaceOnUse">
<stop stop-color="#68E1FD"/>
<stop offset="1" stop-color="#69B9EB"/>
</linearGradient>
<linearGradient id="paint11_linear_190_1163" x1="222.245" y1="192.791" x2="303.269" y2="192.791" gradientUnits="userSpaceOnUse">
<stop/>
<stop offset="1" stop-opacity="0"/>
</linearGradient>
<linearGradient id="paint12_linear_190_1163" x1="276.204" y1="180.826" x2="287.232" y2="193.94" gradientUnits="userSpaceOnUse">
<stop offset="0.32" stop-color="white" stop-opacity="0"/>
<stop offset="1" stop-color="white"/>
</linearGradient>
<linearGradient id="paint13_linear_190_1163" x1="261.678" y1="166.479" x2="254.92" y2="185.237" gradientUnits="userSpaceOnUse">
<stop/>
<stop offset="1" stop-opacity="0"/>
</linearGradient>
<linearGradient id="paint14_linear_190_1163" x1="265.657" y1="166.406" x2="257.514" y2="181.573" gradientUnits="userSpaceOnUse">
<stop/>
<stop offset="1" stop-opacity="0"/>
</linearGradient>
<linearGradient id="paint15_linear_190_1163" x1="220.12" y1="175.772" x2="301.145" y2="175.772" gradientUnits="userSpaceOnUse">
<stop/>
<stop offset="1" stop-opacity="0"/>
</linearGradient>
<linearGradient id="paint16_linear_190_1163" x1="258.54" y1="178.5" x2="265.884" y2="191.628" gradientUnits="userSpaceOnUse">
<stop offset="0.32" stop-color="white" stop-opacity="0"/>
<stop offset="1" stop-color="white"/>
</linearGradient>
<linearGradient id="paint17_linear_190_1163" x1="251.963" y1="161.505" x2="254.884" y2="177.088" gradientUnits="userSpaceOnUse">
<stop/>
<stop offset="0.84" stop-opacity="0"/>
</linearGradient>
<linearGradient id="paint18_linear_190_1163" x1="252.331" y1="167.944" x2="285.22" y2="163.457" gradientUnits="userSpaceOnUse">
<stop/>
<stop offset="1" stop-opacity="0"/>
</linearGradient>
<linearGradient id="paint19_linear_190_1163" x1="218.556" y1="157.682" x2="299.593" y2="157.682" gradientUnits="userSpaceOnUse">
<stop/>
<stop offset="1" stop-opacity="0"/>
</linearGradient>
<linearGradient id="paint20_linear_190_1163" x1="246.805" y1="130.894" x2="239.26" y2="158.896" gradientUnits="userSpaceOnUse">
<stop/>
<stop offset="1" stop-opacity="0"/>
</linearGradient>
<linearGradient id="paint21_linear_190_1163" x1="239.639" y1="140.901" x2="245.723" y2="162.815" gradientUnits="userSpaceOnUse">
<stop offset="0.32" stop-color="white" stop-opacity="0"/>
<stop offset="1" stop-color="white"/>
</linearGradient>
<linearGradient id="paint22_linear_190_1163" x1="240.604" y1="149.823" x2="279.295" y2="149.823" gradientUnits="userSpaceOnUse">
<stop stop-color="#183866"/>
<stop offset="1" stop-color="#1A7FC1"/>
</linearGradient>
<linearGradient id="paint23_linear_190_1163" x1="161.329" y1="282.728" x2="161.305" y2="233.41" gradientUnits="userSpaceOnUse">
<stop stop-color="#183866"/>
<stop offset="1" stop-color="#1A7FC1"/>
</linearGradient>
<linearGradient id="paint24_linear_190_1163" x1="231.511" y1="321.377" x2="212.195" y2="228.484" gradientUnits="userSpaceOnUse">
<stop/>
<stop offset="1" stop-opacity="0"/>
</linearGradient>
<linearGradient id="paint25_linear_190_1163" x1="157.936" y1="304.176" x2="145.53" y2="244.524" gradientUnits="userSpaceOnUse">
<stop/>
<stop offset="1" stop-opacity="0"/>
</linearGradient>
<linearGradient id="paint26_linear_190_1163" x1="250.804" y1="179.586" x2="249.896" y2="152.987" gradientUnits="userSpaceOnUse">
<stop/>
<stop offset="1" stop-opacity="0"/>
</linearGradient>
<linearGradient id="paint27_linear_190_1163" x1="243.618" y1="164.739" x2="262.24" y2="164.739" gradientUnits="userSpaceOnUse">
<stop/>
<stop offset="1" stop-opacity="0"/>
</linearGradient>
<linearGradient id="paint28_linear_190_1163" x1="150.103" y1="308.14" x2="161.552" y2="197.956" gradientUnits="userSpaceOnUse">
<stop/>
<stop offset="0.07" stop-opacity="0.84"/>
<stop offset="1" stop-opacity="0"/>
</linearGradient>
<linearGradient id="paint29_linear_190_1163" x1="228.744" y1="237.321" x2="241.783" y2="106.263" gradientUnits="userSpaceOnUse">
<stop stop-color="white" stop-opacity="0"/>
<stop offset="0.54" stop-color="white"/>
</linearGradient>
<linearGradient id="paint30_linear_190_1163" x1="239.13" y1="190.094" x2="250.472" y2="214.765" gradientUnits="userSpaceOnUse">
<stop/>
<stop offset="1" stop-opacity="0"/>
</linearGradient>
<linearGradient id="paint31_linear_190_1163" x1="259.15" y1="180.89" x2="270.488" y2="205.561" gradientUnits="userSpaceOnUse">
<stop/>
<stop offset="1" stop-opacity="0"/>
</linearGradient>
<linearGradient id="paint32_linear_190_1163" x1="264.078" y1="225.138" x2="262.605" y2="188.96" gradientUnits="userSpaceOnUse">
<stop stop-color="white" stop-opacity="0"/>
<stop offset="0.67" stop-color="white"/>
</linearGradient>
<linearGradient id="paint33_linear_190_1163" x1="251.102" y1="180.009" x2="280.691" y2="226.89" gradientUnits="userSpaceOnUse">
<stop/>
<stop offset="1" stop-opacity="0"/>
</linearGradient>
<linearGradient id="paint34_linear_190_1163" x1="267.774" y1="199.94" x2="277.63" y2="245.503" gradientUnits="userSpaceOnUse">
<stop/>
<stop offset="1" stop-opacity="0"/>
</linearGradient>
<linearGradient id="paint35_linear_190_1163" x1="271.769" y1="199.076" x2="281.625" y2="244.639" gradientUnits="userSpaceOnUse">
<stop/>
<stop offset="1" stop-opacity="0"/>
</linearGradient>
<linearGradient id="paint36_linear_190_1163" x1="254.294" y1="317.586" x2="234.973" y2="224.693" gradientUnits="userSpaceOnUse">
<stop/>
<stop offset="1" stop-opacity="0"/>
</linearGradient>
<linearGradient id="paint37_linear_190_1163" x1="217.353" y1="198.103" x2="193.487" y2="166.944" gradientUnits="userSpaceOnUse">
<stop/>
<stop offset="1" stop-opacity="0"/>
</linearGradient>
<linearGradient id="paint38_linear_190_1163" x1="190.526" y1="174.092" x2="209.149" y2="174.092" gradientUnits="userSpaceOnUse">
<stop/>
<stop offset="1" stop-opacity="0"/>
</linearGradient>
<linearGradient id="paint39_linear_190_1163" x1="153.823" y1="135.242" x2="158.523" y2="160.574" gradientUnits="userSpaceOnUse">
<stop/>
<stop offset="1" stop-opacity="0"/>
</linearGradient>
<linearGradient id="paint40_linear_190_1163" x1="133.105" y1="331.307" x2="113.784" y2="238.414" gradientUnits="userSpaceOnUse">
<stop/>
<stop offset="1" stop-opacity="0"/>
</linearGradient>
<linearGradient id="paint41_linear_190_1163" x1="197.705" y1="330.46" x2="178.384" y2="237.567" gradientUnits="userSpaceOnUse">
<stop/>
<stop offset="1" stop-opacity="0"/>
</linearGradient>
<linearGradient id="paint42_linear_190_1163" x1="269.297" y1="117.56" x2="215.179" y2="105.681" gradientUnits="userSpaceOnUse">
<stop/>
<stop offset="1" stop-opacity="0"/>
</linearGradient>
<linearGradient id="paint43_linear_190_1163" x1="245.242" y1="128.024" x2="227.584" y2="102.899" gradientUnits="userSpaceOnUse">
<stop/>
<stop offset="1" stop-opacity="0"/>
</linearGradient>
<linearGradient id="paint44_linear_190_1163" x1="163.845" y1="106.85" x2="183.267" y2="106.85" gradientUnits="userSpaceOnUse">
<stop stop-color="#ECC4D7"/>
<stop offset="0.42" stop-color="#EFD4D1"/>
<stop offset="1" stop-color="#F2EAC9"/>
</linearGradient>
<linearGradient id="paint45_linear_190_1163" x1="172.246" y1="110.056" x2="226.266" y2="123.815" gradientUnits="userSpaceOnUse">
<stop/>
<stop offset="1" stop-opacity="0"/>
</linearGradient>
<linearGradient id="paint46_linear_190_1163" x1="213.112" y1="95.3736" x2="86.739" y2="151.267" gradientUnits="userSpaceOnUse">
<stop offset="0.32" stop-color="white" stop-opacity="0"/>
<stop offset="0.54" stop-color="white"/>
</linearGradient>
<linearGradient id="paint47_linear_190_1163" x1="173.33" y1="113.059" x2="229.805" y2="86.6907" gradientUnits="userSpaceOnUse">
<stop offset="0.32" stop-color="white" stop-opacity="0"/>
<stop offset="0.54" stop-color="white"/>
</linearGradient>
<linearGradient id="paint48_linear_190_1163" x1="172.454" y1="107.44" x2="156.913" y2="95.7109" gradientUnits="userSpaceOnUse">
<stop/>
<stop offset="1" stop-opacity="0"/>
</linearGradient>
<linearGradient id="paint49_linear_190_1163" x1="169.38" y1="98.5183" x2="190.115" y2="130.043" gradientUnits="userSpaceOnUse">
<stop offset="0.32" stop-color="white" stop-opacity="0"/>
<stop offset="1" stop-color="white"/>
</linearGradient>
<linearGradient id="paint50_linear_190_1163" x1="190.292" y1="117.726" x2="209.726" y2="117.726" gradientUnits="userSpaceOnUse">
<stop stop-color="#ECC4D7"/>
<stop offset="0.42" stop-color="#EFD4D1"/>
<stop offset="1" stop-color="#F2EAC9"/>
</linearGradient>
<linearGradient id="paint51_linear_190_1163" x1="157.738" y1="97.9733" x2="158.5" y2="100.61" gradientUnits="userSpaceOnUse">
<stop stop-color="#ECC4D7"/>
<stop offset="0.42" stop-color="#EFD4D1"/>
<stop offset="1" stop-color="#F2EAC9"/>
</linearGradient>
<linearGradient id="paint52_linear_190_1163" x1="233.115" y1="76.6628" x2="242.117" y2="85.8727" gradientUnits="userSpaceOnUse">
<stop stop-color="#ECC4D7"/>
<stop offset="1" stop-color="#F2EAC9"/>
</linearGradient>
<linearGradient id="paint53_linear_190_1163" x1="223.145" y1="57.2899" x2="240.213" y2="74.7525" gradientUnits="userSpaceOnUse">
<stop stop-color="#ECC4D7"/>
<stop offset="1" stop-color="#F2EAC9"/>
</linearGradient>
<linearGradient id="paint54_linear_190_1163" x1="243.06" y1="70.7649" x2="245.743" y2="70.7649" gradientUnits="userSpaceOnUse">
<stop stop-color="#ECC4D7"/>
<stop offset="1" stop-color="#F2EAC9"/>
</linearGradient>
<clipPath id="clip0_190_1163">
<rect width="229" height="241" fill="white" transform="translate(86 47)"/>
</clipPath>
</defs>
</svg>
